G75*
%MOIN*%
%OFA0B0*%
%FSLAX25Y25*%
%IPPOS*%
%LPD*%
%AMOC8*
5,1,8,0,0,1.08239X$1,22.5*
%
%ADD10C,0.03753*%
%ADD11C,0.04934*%
%ADD12C,0.11627*%
%ADD13R,0.06800X0.06800*%
%ADD14C,0.04343*%
%ADD15C,0.05131*%
%ADD16C,0.04762*%
D10*
X0032968Y0058006D03*
D11*
X0022389Y0047427D03*
D12*
X0020048Y0021491D03*
X0110599Y0021491D03*
X0110599Y0249837D03*
X0020048Y0249837D03*
D13*
X0014879Y0040617D03*
X0014879Y0050617D03*
X0014879Y0060617D03*
X0014879Y0070617D03*
X0014879Y0080617D03*
X0014879Y0090617D03*
X0014879Y0100617D03*
X0014879Y0110617D03*
X0014879Y0120617D03*
X0014879Y0130617D03*
X0014879Y0140617D03*
X0014879Y0150617D03*
X0014879Y0160617D03*
X0014879Y0170617D03*
X0014879Y0180617D03*
X0014879Y0190617D03*
X0014879Y0200617D03*
X0014879Y0210617D03*
X0014879Y0220617D03*
X0014879Y0230617D03*
X0024879Y0230617D03*
X0024879Y0220617D03*
X0024879Y0210617D03*
X0024879Y0200617D03*
X0024879Y0190617D03*
X0024879Y0180617D03*
X0024879Y0170617D03*
X0024879Y0160617D03*
X0024879Y0150617D03*
X0024879Y0140617D03*
X0024879Y0130617D03*
X0024879Y0120617D03*
X0024879Y0110617D03*
X0024879Y0100617D03*
X0024879Y0090617D03*
X0024879Y0080617D03*
X0024879Y0070617D03*
X0024879Y0060617D03*
X0024879Y0050617D03*
X0024879Y0040617D03*
D14*
X0058973Y0015717D03*
X0070784Y0015717D03*
D15*
X0075321Y0250117D03*
X0055636Y0250117D03*
D16*
X0021979Y0053117D03*
M02*
