%
M48
M72
T01C0.0138
T02C0.0236
T03C0.0240
T04C0.0295
T05C0.0354
T06C0.0413
T07C0.0433
T08C0.1083
%
T01
X6798Y3312
X11248Y8562
T02
X9148Y14312
X8348Y15562
X8698Y22762
X4648Y12062
X4648Y11562
X2998Y10662
X2148Y8062
X3298Y7862
X2198Y5312
X3248Y4812
X2948Y15062
T03
X3148Y13852
X3958Y15022
X4858Y14662
X3778Y17632
X3148Y16912
X3058Y17582
X3058Y19562
X3058Y20562
X3058Y21682
X1708Y23662
X9268Y10972
X9678Y11282
X10078Y12772
X6838Y5752
X6658Y6652
X6298Y6292
X5848Y5932
X5038Y6292
T04
X3297Y5801
T05
X5897Y1572
X7078Y1572
T06
X2239Y4743
T07
X5564Y25012
X7532Y25012
T08
X2005Y2149
X11060Y2149
X11060Y24984
X2005Y24984
M30
