G75*
%MOIN*%
%OFA0B0*%
%FSLAX25Y25*%
%IPPOS*%
%LPD*%
%AMOC8*
5,1,8,0,0,1.08239X$1,22.5*
%
%ADD10C,0.00000*%
%ADD11C,0.02000*%
%ADD12C,0.00800*%
%ADD13C,0.00600*%
%ADD14C,0.00500*%
D10*
X0005979Y0022117D02*
X0005979Y0249617D01*
X0005983Y0249943D01*
X0005995Y0250269D01*
X0006014Y0250595D01*
X0006042Y0250920D01*
X0006077Y0251244D01*
X0006121Y0251568D01*
X0006172Y0251890D01*
X0006231Y0252211D01*
X0006297Y0252530D01*
X0006371Y0252848D01*
X0006453Y0253164D01*
X0006543Y0253477D01*
X0006640Y0253789D01*
X0006744Y0254098D01*
X0006856Y0254404D01*
X0006976Y0254708D01*
X0007102Y0255008D01*
X0007236Y0255306D01*
X0007377Y0255600D01*
X0007525Y0255891D01*
X0007680Y0256178D01*
X0007842Y0256461D01*
X0008011Y0256740D01*
X0008187Y0257015D01*
X0008369Y0257286D01*
X0008557Y0257552D01*
X0008752Y0257814D01*
X0008953Y0258071D01*
X0009161Y0258322D01*
X0009374Y0258569D01*
X0009593Y0258811D01*
X0009818Y0259047D01*
X0010049Y0259278D01*
X0010285Y0259503D01*
X0010527Y0259722D01*
X0010774Y0259935D01*
X0011025Y0260143D01*
X0011282Y0260344D01*
X0011544Y0260539D01*
X0011810Y0260727D01*
X0012081Y0260909D01*
X0012356Y0261085D01*
X0012635Y0261254D01*
X0012918Y0261416D01*
X0013205Y0261571D01*
X0013496Y0261719D01*
X0013790Y0261860D01*
X0014088Y0261994D01*
X0014388Y0262120D01*
X0014692Y0262240D01*
X0014998Y0262352D01*
X0015307Y0262456D01*
X0015619Y0262553D01*
X0015932Y0262643D01*
X0016248Y0262725D01*
X0016566Y0262799D01*
X0016885Y0262865D01*
X0017206Y0262924D01*
X0017528Y0262975D01*
X0017852Y0263019D01*
X0018176Y0263054D01*
X0018501Y0263082D01*
X0018827Y0263101D01*
X0019153Y0263113D01*
X0019479Y0263117D01*
X0110979Y0263117D01*
X0105186Y0249837D02*
X0105188Y0249984D01*
X0105194Y0250130D01*
X0105204Y0250276D01*
X0105218Y0250422D01*
X0105236Y0250568D01*
X0105257Y0250713D01*
X0105283Y0250857D01*
X0105313Y0251001D01*
X0105346Y0251143D01*
X0105383Y0251285D01*
X0105424Y0251426D01*
X0105469Y0251565D01*
X0105518Y0251704D01*
X0105570Y0251841D01*
X0105627Y0251976D01*
X0105686Y0252110D01*
X0105750Y0252242D01*
X0105817Y0252372D01*
X0105887Y0252501D01*
X0105961Y0252628D01*
X0106038Y0252752D01*
X0106119Y0252875D01*
X0106203Y0252995D01*
X0106290Y0253113D01*
X0106380Y0253228D01*
X0106473Y0253341D01*
X0106570Y0253452D01*
X0106669Y0253560D01*
X0106771Y0253665D01*
X0106876Y0253767D01*
X0106984Y0253866D01*
X0107095Y0253963D01*
X0107208Y0254056D01*
X0107323Y0254146D01*
X0107441Y0254233D01*
X0107561Y0254317D01*
X0107684Y0254398D01*
X0107808Y0254475D01*
X0107935Y0254549D01*
X0108064Y0254619D01*
X0108194Y0254686D01*
X0108326Y0254750D01*
X0108460Y0254809D01*
X0108595Y0254866D01*
X0108732Y0254918D01*
X0108871Y0254967D01*
X0109010Y0255012D01*
X0109151Y0255053D01*
X0109293Y0255090D01*
X0109435Y0255123D01*
X0109579Y0255153D01*
X0109723Y0255179D01*
X0109868Y0255200D01*
X0110014Y0255218D01*
X0110160Y0255232D01*
X0110306Y0255242D01*
X0110452Y0255248D01*
X0110599Y0255250D01*
X0110746Y0255248D01*
X0110892Y0255242D01*
X0111038Y0255232D01*
X0111184Y0255218D01*
X0111330Y0255200D01*
X0111475Y0255179D01*
X0111619Y0255153D01*
X0111763Y0255123D01*
X0111905Y0255090D01*
X0112047Y0255053D01*
X0112188Y0255012D01*
X0112327Y0254967D01*
X0112466Y0254918D01*
X0112603Y0254866D01*
X0112738Y0254809D01*
X0112872Y0254750D01*
X0113004Y0254686D01*
X0113134Y0254619D01*
X0113263Y0254549D01*
X0113390Y0254475D01*
X0113514Y0254398D01*
X0113637Y0254317D01*
X0113757Y0254233D01*
X0113875Y0254146D01*
X0113990Y0254056D01*
X0114103Y0253963D01*
X0114214Y0253866D01*
X0114322Y0253767D01*
X0114427Y0253665D01*
X0114529Y0253560D01*
X0114628Y0253452D01*
X0114725Y0253341D01*
X0114818Y0253228D01*
X0114908Y0253113D01*
X0114995Y0252995D01*
X0115079Y0252875D01*
X0115160Y0252752D01*
X0115237Y0252628D01*
X0115311Y0252501D01*
X0115381Y0252372D01*
X0115448Y0252242D01*
X0115512Y0252110D01*
X0115571Y0251976D01*
X0115628Y0251841D01*
X0115680Y0251704D01*
X0115729Y0251565D01*
X0115774Y0251426D01*
X0115815Y0251285D01*
X0115852Y0251143D01*
X0115885Y0251001D01*
X0115915Y0250857D01*
X0115941Y0250713D01*
X0115962Y0250568D01*
X0115980Y0250422D01*
X0115994Y0250276D01*
X0116004Y0250130D01*
X0116010Y0249984D01*
X0116012Y0249837D01*
X0116010Y0249690D01*
X0116004Y0249544D01*
X0115994Y0249398D01*
X0115980Y0249252D01*
X0115962Y0249106D01*
X0115941Y0248961D01*
X0115915Y0248817D01*
X0115885Y0248673D01*
X0115852Y0248531D01*
X0115815Y0248389D01*
X0115774Y0248248D01*
X0115729Y0248109D01*
X0115680Y0247970D01*
X0115628Y0247833D01*
X0115571Y0247698D01*
X0115512Y0247564D01*
X0115448Y0247432D01*
X0115381Y0247302D01*
X0115311Y0247173D01*
X0115237Y0247046D01*
X0115160Y0246922D01*
X0115079Y0246799D01*
X0114995Y0246679D01*
X0114908Y0246561D01*
X0114818Y0246446D01*
X0114725Y0246333D01*
X0114628Y0246222D01*
X0114529Y0246114D01*
X0114427Y0246009D01*
X0114322Y0245907D01*
X0114214Y0245808D01*
X0114103Y0245711D01*
X0113990Y0245618D01*
X0113875Y0245528D01*
X0113757Y0245441D01*
X0113637Y0245357D01*
X0113514Y0245276D01*
X0113390Y0245199D01*
X0113263Y0245125D01*
X0113134Y0245055D01*
X0113004Y0244988D01*
X0112872Y0244924D01*
X0112738Y0244865D01*
X0112603Y0244808D01*
X0112466Y0244756D01*
X0112327Y0244707D01*
X0112188Y0244662D01*
X0112047Y0244621D01*
X0111905Y0244584D01*
X0111763Y0244551D01*
X0111619Y0244521D01*
X0111475Y0244495D01*
X0111330Y0244474D01*
X0111184Y0244456D01*
X0111038Y0244442D01*
X0110892Y0244432D01*
X0110746Y0244426D01*
X0110599Y0244424D01*
X0110452Y0244426D01*
X0110306Y0244432D01*
X0110160Y0244442D01*
X0110014Y0244456D01*
X0109868Y0244474D01*
X0109723Y0244495D01*
X0109579Y0244521D01*
X0109435Y0244551D01*
X0109293Y0244584D01*
X0109151Y0244621D01*
X0109010Y0244662D01*
X0108871Y0244707D01*
X0108732Y0244756D01*
X0108595Y0244808D01*
X0108460Y0244865D01*
X0108326Y0244924D01*
X0108194Y0244988D01*
X0108064Y0245055D01*
X0107935Y0245125D01*
X0107808Y0245199D01*
X0107684Y0245276D01*
X0107561Y0245357D01*
X0107441Y0245441D01*
X0107323Y0245528D01*
X0107208Y0245618D01*
X0107095Y0245711D01*
X0106984Y0245808D01*
X0106876Y0245907D01*
X0106771Y0246009D01*
X0106669Y0246114D01*
X0106570Y0246222D01*
X0106473Y0246333D01*
X0106380Y0246446D01*
X0106290Y0246561D01*
X0106203Y0246679D01*
X0106119Y0246799D01*
X0106038Y0246922D01*
X0105961Y0247046D01*
X0105887Y0247173D01*
X0105817Y0247302D01*
X0105750Y0247432D01*
X0105686Y0247564D01*
X0105627Y0247698D01*
X0105570Y0247833D01*
X0105518Y0247970D01*
X0105469Y0248109D01*
X0105424Y0248248D01*
X0105383Y0248389D01*
X0105346Y0248531D01*
X0105313Y0248673D01*
X0105283Y0248817D01*
X0105257Y0248961D01*
X0105236Y0249106D01*
X0105218Y0249252D01*
X0105204Y0249398D01*
X0105194Y0249544D01*
X0105188Y0249690D01*
X0105186Y0249837D01*
X0110978Y0263117D02*
X0111314Y0263108D01*
X0111650Y0263090D01*
X0111985Y0263065D01*
X0112319Y0263031D01*
X0112653Y0262990D01*
X0112985Y0262940D01*
X0113316Y0262882D01*
X0113645Y0262817D01*
X0113973Y0262743D01*
X0114299Y0262661D01*
X0114623Y0262571D01*
X0114944Y0262474D01*
X0115263Y0262368D01*
X0115580Y0262255D01*
X0115893Y0262135D01*
X0116204Y0262006D01*
X0116511Y0261870D01*
X0116815Y0261727D01*
X0117116Y0261577D01*
X0117412Y0261419D01*
X0117705Y0261254D01*
X0117993Y0261081D01*
X0118278Y0260902D01*
X0118557Y0260716D01*
X0118833Y0260524D01*
X0119103Y0260324D01*
X0119369Y0260118D01*
X0119629Y0259906D01*
X0119884Y0259687D01*
X0120134Y0259463D01*
X0120378Y0259232D01*
X0120617Y0258995D01*
X0120850Y0258753D01*
X0121076Y0258505D01*
X0121297Y0258252D01*
X0121512Y0257993D01*
X0121720Y0257729D01*
X0121921Y0257461D01*
X0122116Y0257187D01*
X0122305Y0256909D01*
X0122486Y0256626D01*
X0122661Y0256339D01*
X0122828Y0256047D01*
X0122988Y0255752D01*
X0123142Y0255453D01*
X0123287Y0255150D01*
X0123426Y0254844D01*
X0123557Y0254535D01*
X0123680Y0254222D01*
X0123796Y0253907D01*
X0123904Y0253589D01*
X0124004Y0253268D01*
X0124096Y0252945D01*
X0124181Y0252620D01*
X0124257Y0252292D01*
X0124326Y0251963D01*
X0124386Y0251633D01*
X0124439Y0251301D01*
X0124483Y0250968D01*
X0124519Y0250634D01*
X0124548Y0250299D01*
X0124568Y0249964D01*
X0124579Y0249628D01*
X0124583Y0249292D01*
X0124578Y0248956D01*
X0124566Y0248620D01*
X0124545Y0248285D01*
X0124516Y0247950D01*
X0124479Y0247616D01*
X0124479Y0247617D02*
X0124479Y0021617D01*
X0124482Y0021279D01*
X0124477Y0020940D01*
X0124463Y0020602D01*
X0124442Y0020264D01*
X0124412Y0019927D01*
X0124373Y0019591D01*
X0124327Y0019256D01*
X0124272Y0018922D01*
X0124210Y0018590D01*
X0124139Y0018259D01*
X0124060Y0017930D01*
X0123972Y0017603D01*
X0123877Y0017278D01*
X0123774Y0016956D01*
X0123664Y0016636D01*
X0123545Y0016319D01*
X0123419Y0016005D01*
X0123284Y0015695D01*
X0123143Y0015387D01*
X0122994Y0015083D01*
X0122837Y0014783D01*
X0122673Y0014487D01*
X0122502Y0014195D01*
X0122324Y0013908D01*
X0122139Y0013624D01*
X0121947Y0013346D01*
X0121748Y0013072D01*
X0121543Y0012803D01*
X0121331Y0012539D01*
X0121113Y0012281D01*
X0120888Y0012028D01*
X0120657Y0011780D01*
X0120421Y0011539D01*
X0120178Y0011303D01*
X0119930Y0011073D01*
X0119676Y0010849D01*
X0119416Y0010632D01*
X0119152Y0010421D01*
X0118882Y0010216D01*
X0118608Y0010018D01*
X0118328Y0009827D01*
X0118045Y0009643D01*
X0117756Y0009466D01*
X0117464Y0009296D01*
X0117167Y0009133D01*
X0116866Y0008978D01*
X0116562Y0008830D01*
X0116254Y0008690D01*
X0115943Y0008557D01*
X0115629Y0008431D01*
X0115312Y0008314D01*
X0114991Y0008204D01*
X0114669Y0008102D01*
X0114344Y0008008D01*
X0114016Y0007922D01*
X0113687Y0007845D01*
X0113356Y0007775D01*
X0113023Y0007713D01*
X0112689Y0007660D01*
X0112354Y0007614D01*
X0112017Y0007577D01*
X0111680Y0007549D01*
X0111343Y0007528D01*
X0111004Y0007516D01*
X0110666Y0007512D01*
X0110328Y0007516D01*
X0109990Y0007529D01*
X0109652Y0007550D01*
X0109315Y0007579D01*
X0108978Y0007617D01*
X0108979Y0007617D02*
X0020479Y0007617D01*
X0014635Y0021491D02*
X0014637Y0021638D01*
X0014643Y0021784D01*
X0014653Y0021930D01*
X0014667Y0022076D01*
X0014685Y0022222D01*
X0014706Y0022367D01*
X0014732Y0022511D01*
X0014762Y0022655D01*
X0014795Y0022797D01*
X0014832Y0022939D01*
X0014873Y0023080D01*
X0014918Y0023219D01*
X0014967Y0023358D01*
X0015019Y0023495D01*
X0015076Y0023630D01*
X0015135Y0023764D01*
X0015199Y0023896D01*
X0015266Y0024026D01*
X0015336Y0024155D01*
X0015410Y0024282D01*
X0015487Y0024406D01*
X0015568Y0024529D01*
X0015652Y0024649D01*
X0015739Y0024767D01*
X0015829Y0024882D01*
X0015922Y0024995D01*
X0016019Y0025106D01*
X0016118Y0025214D01*
X0016220Y0025319D01*
X0016325Y0025421D01*
X0016433Y0025520D01*
X0016544Y0025617D01*
X0016657Y0025710D01*
X0016772Y0025800D01*
X0016890Y0025887D01*
X0017010Y0025971D01*
X0017133Y0026052D01*
X0017257Y0026129D01*
X0017384Y0026203D01*
X0017513Y0026273D01*
X0017643Y0026340D01*
X0017775Y0026404D01*
X0017909Y0026463D01*
X0018044Y0026520D01*
X0018181Y0026572D01*
X0018320Y0026621D01*
X0018459Y0026666D01*
X0018600Y0026707D01*
X0018742Y0026744D01*
X0018884Y0026777D01*
X0019028Y0026807D01*
X0019172Y0026833D01*
X0019317Y0026854D01*
X0019463Y0026872D01*
X0019609Y0026886D01*
X0019755Y0026896D01*
X0019901Y0026902D01*
X0020048Y0026904D01*
X0020195Y0026902D01*
X0020341Y0026896D01*
X0020487Y0026886D01*
X0020633Y0026872D01*
X0020779Y0026854D01*
X0020924Y0026833D01*
X0021068Y0026807D01*
X0021212Y0026777D01*
X0021354Y0026744D01*
X0021496Y0026707D01*
X0021637Y0026666D01*
X0021776Y0026621D01*
X0021915Y0026572D01*
X0022052Y0026520D01*
X0022187Y0026463D01*
X0022321Y0026404D01*
X0022453Y0026340D01*
X0022583Y0026273D01*
X0022712Y0026203D01*
X0022839Y0026129D01*
X0022963Y0026052D01*
X0023086Y0025971D01*
X0023206Y0025887D01*
X0023324Y0025800D01*
X0023439Y0025710D01*
X0023552Y0025617D01*
X0023663Y0025520D01*
X0023771Y0025421D01*
X0023876Y0025319D01*
X0023978Y0025214D01*
X0024077Y0025106D01*
X0024174Y0024995D01*
X0024267Y0024882D01*
X0024357Y0024767D01*
X0024444Y0024649D01*
X0024528Y0024529D01*
X0024609Y0024406D01*
X0024686Y0024282D01*
X0024760Y0024155D01*
X0024830Y0024026D01*
X0024897Y0023896D01*
X0024961Y0023764D01*
X0025020Y0023630D01*
X0025077Y0023495D01*
X0025129Y0023358D01*
X0025178Y0023219D01*
X0025223Y0023080D01*
X0025264Y0022939D01*
X0025301Y0022797D01*
X0025334Y0022655D01*
X0025364Y0022511D01*
X0025390Y0022367D01*
X0025411Y0022222D01*
X0025429Y0022076D01*
X0025443Y0021930D01*
X0025453Y0021784D01*
X0025459Y0021638D01*
X0025461Y0021491D01*
X0025459Y0021344D01*
X0025453Y0021198D01*
X0025443Y0021052D01*
X0025429Y0020906D01*
X0025411Y0020760D01*
X0025390Y0020615D01*
X0025364Y0020471D01*
X0025334Y0020327D01*
X0025301Y0020185D01*
X0025264Y0020043D01*
X0025223Y0019902D01*
X0025178Y0019763D01*
X0025129Y0019624D01*
X0025077Y0019487D01*
X0025020Y0019352D01*
X0024961Y0019218D01*
X0024897Y0019086D01*
X0024830Y0018956D01*
X0024760Y0018827D01*
X0024686Y0018700D01*
X0024609Y0018576D01*
X0024528Y0018453D01*
X0024444Y0018333D01*
X0024357Y0018215D01*
X0024267Y0018100D01*
X0024174Y0017987D01*
X0024077Y0017876D01*
X0023978Y0017768D01*
X0023876Y0017663D01*
X0023771Y0017561D01*
X0023663Y0017462D01*
X0023552Y0017365D01*
X0023439Y0017272D01*
X0023324Y0017182D01*
X0023206Y0017095D01*
X0023086Y0017011D01*
X0022963Y0016930D01*
X0022839Y0016853D01*
X0022712Y0016779D01*
X0022583Y0016709D01*
X0022453Y0016642D01*
X0022321Y0016578D01*
X0022187Y0016519D01*
X0022052Y0016462D01*
X0021915Y0016410D01*
X0021776Y0016361D01*
X0021637Y0016316D01*
X0021496Y0016275D01*
X0021354Y0016238D01*
X0021212Y0016205D01*
X0021068Y0016175D01*
X0020924Y0016149D01*
X0020779Y0016128D01*
X0020633Y0016110D01*
X0020487Y0016096D01*
X0020341Y0016086D01*
X0020195Y0016080D01*
X0020048Y0016078D01*
X0019901Y0016080D01*
X0019755Y0016086D01*
X0019609Y0016096D01*
X0019463Y0016110D01*
X0019317Y0016128D01*
X0019172Y0016149D01*
X0019028Y0016175D01*
X0018884Y0016205D01*
X0018742Y0016238D01*
X0018600Y0016275D01*
X0018459Y0016316D01*
X0018320Y0016361D01*
X0018181Y0016410D01*
X0018044Y0016462D01*
X0017909Y0016519D01*
X0017775Y0016578D01*
X0017643Y0016642D01*
X0017513Y0016709D01*
X0017384Y0016779D01*
X0017257Y0016853D01*
X0017133Y0016930D01*
X0017010Y0017011D01*
X0016890Y0017095D01*
X0016772Y0017182D01*
X0016657Y0017272D01*
X0016544Y0017365D01*
X0016433Y0017462D01*
X0016325Y0017561D01*
X0016220Y0017663D01*
X0016118Y0017768D01*
X0016019Y0017876D01*
X0015922Y0017987D01*
X0015829Y0018100D01*
X0015739Y0018215D01*
X0015652Y0018333D01*
X0015568Y0018453D01*
X0015487Y0018576D01*
X0015410Y0018700D01*
X0015336Y0018827D01*
X0015266Y0018956D01*
X0015199Y0019086D01*
X0015135Y0019218D01*
X0015076Y0019352D01*
X0015019Y0019487D01*
X0014967Y0019624D01*
X0014918Y0019763D01*
X0014873Y0019902D01*
X0014832Y0020043D01*
X0014795Y0020185D01*
X0014762Y0020327D01*
X0014732Y0020471D01*
X0014706Y0020615D01*
X0014685Y0020760D01*
X0014667Y0020906D01*
X0014653Y0021052D01*
X0014643Y0021198D01*
X0014637Y0021344D01*
X0014635Y0021491D01*
X0005979Y0022117D02*
X0005971Y0021774D01*
X0005971Y0021430D01*
X0005980Y0021087D01*
X0005997Y0020744D01*
X0006023Y0020402D01*
X0006057Y0020060D01*
X0006099Y0019719D01*
X0006150Y0019380D01*
X0006209Y0019042D01*
X0006276Y0018705D01*
X0006352Y0018370D01*
X0006435Y0018037D01*
X0006527Y0017706D01*
X0006627Y0017378D01*
X0006735Y0017052D01*
X0006851Y0016728D01*
X0006974Y0016408D01*
X0007106Y0016091D01*
X0007245Y0015777D01*
X0007392Y0015467D01*
X0007547Y0015160D01*
X0007709Y0014857D01*
X0007878Y0014559D01*
X0008055Y0014264D01*
X0008238Y0013974D01*
X0008429Y0013689D01*
X0008627Y0013408D01*
X0008832Y0013132D01*
X0009043Y0012862D01*
X0009261Y0012596D01*
X0009485Y0012336D01*
X0009716Y0012082D01*
X0009952Y0011833D01*
X0010195Y0011590D01*
X0010444Y0011354D01*
X0010698Y0011123D01*
X0010958Y0010899D01*
X0011224Y0010681D01*
X0011494Y0010470D01*
X0011770Y0010265D01*
X0012051Y0010067D01*
X0012336Y0009876D01*
X0012626Y0009693D01*
X0012921Y0009516D01*
X0013219Y0009347D01*
X0013522Y0009185D01*
X0013829Y0009030D01*
X0014139Y0008883D01*
X0014453Y0008744D01*
X0014770Y0008612D01*
X0015090Y0008489D01*
X0015414Y0008373D01*
X0015740Y0008265D01*
X0016068Y0008165D01*
X0016399Y0008073D01*
X0016732Y0007990D01*
X0017067Y0007914D01*
X0017404Y0007847D01*
X0017742Y0007788D01*
X0018081Y0007737D01*
X0018422Y0007695D01*
X0018764Y0007661D01*
X0019106Y0007635D01*
X0019449Y0007618D01*
X0019792Y0007609D01*
X0020136Y0007609D01*
X0020479Y0007617D01*
X0020322Y0047427D02*
X0020324Y0047518D01*
X0020330Y0047608D01*
X0020340Y0047699D01*
X0020354Y0047788D01*
X0020372Y0047877D01*
X0020393Y0047966D01*
X0020419Y0048053D01*
X0020448Y0048139D01*
X0020482Y0048223D01*
X0020518Y0048306D01*
X0020559Y0048388D01*
X0020603Y0048467D01*
X0020650Y0048545D01*
X0020701Y0048620D01*
X0020755Y0048693D01*
X0020812Y0048763D01*
X0020872Y0048831D01*
X0020935Y0048897D01*
X0021001Y0048959D01*
X0021070Y0049018D01*
X0021141Y0049075D01*
X0021215Y0049128D01*
X0021291Y0049178D01*
X0021369Y0049225D01*
X0021449Y0049268D01*
X0021530Y0049307D01*
X0021614Y0049343D01*
X0021699Y0049375D01*
X0021785Y0049404D01*
X0021872Y0049428D01*
X0021961Y0049449D01*
X0022050Y0049466D01*
X0022140Y0049479D01*
X0022230Y0049488D01*
X0022321Y0049493D01*
X0022412Y0049494D01*
X0022502Y0049491D01*
X0022593Y0049484D01*
X0022683Y0049473D01*
X0022773Y0049458D01*
X0022862Y0049439D01*
X0022950Y0049417D01*
X0023036Y0049390D01*
X0023122Y0049360D01*
X0023206Y0049326D01*
X0023289Y0049288D01*
X0023370Y0049247D01*
X0023449Y0049202D01*
X0023526Y0049153D01*
X0023600Y0049102D01*
X0023673Y0049047D01*
X0023743Y0048989D01*
X0023810Y0048928D01*
X0023874Y0048864D01*
X0023936Y0048798D01*
X0023995Y0048728D01*
X0024050Y0048657D01*
X0024103Y0048582D01*
X0024152Y0048506D01*
X0024198Y0048428D01*
X0024240Y0048347D01*
X0024279Y0048265D01*
X0024314Y0048181D01*
X0024345Y0048096D01*
X0024372Y0048009D01*
X0024396Y0047922D01*
X0024416Y0047833D01*
X0024432Y0047744D01*
X0024444Y0047654D01*
X0024452Y0047563D01*
X0024456Y0047472D01*
X0024456Y0047382D01*
X0024452Y0047291D01*
X0024444Y0047200D01*
X0024432Y0047110D01*
X0024416Y0047021D01*
X0024396Y0046932D01*
X0024372Y0046845D01*
X0024345Y0046758D01*
X0024314Y0046673D01*
X0024279Y0046589D01*
X0024240Y0046507D01*
X0024198Y0046426D01*
X0024152Y0046348D01*
X0024103Y0046272D01*
X0024050Y0046197D01*
X0023995Y0046126D01*
X0023936Y0046056D01*
X0023874Y0045990D01*
X0023810Y0045926D01*
X0023743Y0045865D01*
X0023673Y0045807D01*
X0023600Y0045752D01*
X0023526Y0045701D01*
X0023449Y0045652D01*
X0023370Y0045607D01*
X0023289Y0045566D01*
X0023206Y0045528D01*
X0023122Y0045494D01*
X0023036Y0045464D01*
X0022950Y0045437D01*
X0022862Y0045415D01*
X0022773Y0045396D01*
X0022683Y0045381D01*
X0022593Y0045370D01*
X0022502Y0045363D01*
X0022412Y0045360D01*
X0022321Y0045361D01*
X0022230Y0045366D01*
X0022140Y0045375D01*
X0022050Y0045388D01*
X0021961Y0045405D01*
X0021872Y0045426D01*
X0021785Y0045450D01*
X0021699Y0045479D01*
X0021614Y0045511D01*
X0021530Y0045547D01*
X0021449Y0045586D01*
X0021369Y0045629D01*
X0021291Y0045676D01*
X0021215Y0045726D01*
X0021141Y0045779D01*
X0021070Y0045836D01*
X0021001Y0045895D01*
X0020935Y0045957D01*
X0020872Y0046023D01*
X0020812Y0046091D01*
X0020755Y0046161D01*
X0020701Y0046234D01*
X0020650Y0046309D01*
X0020603Y0046387D01*
X0020559Y0046466D01*
X0020518Y0046548D01*
X0020482Y0046631D01*
X0020448Y0046715D01*
X0020419Y0046801D01*
X0020393Y0046888D01*
X0020372Y0046977D01*
X0020354Y0047066D01*
X0020340Y0047155D01*
X0020330Y0047246D01*
X0020324Y0047336D01*
X0020322Y0047427D01*
X0031492Y0058006D02*
X0031494Y0058083D01*
X0031500Y0058159D01*
X0031510Y0058235D01*
X0031524Y0058310D01*
X0031541Y0058385D01*
X0031563Y0058458D01*
X0031588Y0058531D01*
X0031618Y0058602D01*
X0031650Y0058671D01*
X0031687Y0058738D01*
X0031726Y0058804D01*
X0031769Y0058867D01*
X0031816Y0058928D01*
X0031865Y0058987D01*
X0031918Y0059043D01*
X0031973Y0059096D01*
X0032031Y0059146D01*
X0032091Y0059193D01*
X0032154Y0059237D01*
X0032219Y0059278D01*
X0032286Y0059315D01*
X0032355Y0059349D01*
X0032425Y0059379D01*
X0032497Y0059405D01*
X0032571Y0059427D01*
X0032645Y0059446D01*
X0032720Y0059461D01*
X0032796Y0059472D01*
X0032872Y0059479D01*
X0032949Y0059482D01*
X0033025Y0059481D01*
X0033102Y0059476D01*
X0033178Y0059467D01*
X0033254Y0059454D01*
X0033328Y0059437D01*
X0033402Y0059417D01*
X0033475Y0059392D01*
X0033546Y0059364D01*
X0033616Y0059332D01*
X0033684Y0059297D01*
X0033750Y0059258D01*
X0033814Y0059216D01*
X0033875Y0059170D01*
X0033935Y0059121D01*
X0033991Y0059070D01*
X0034045Y0059015D01*
X0034096Y0058958D01*
X0034144Y0058898D01*
X0034189Y0058836D01*
X0034230Y0058771D01*
X0034268Y0058705D01*
X0034303Y0058637D01*
X0034333Y0058566D01*
X0034361Y0058495D01*
X0034384Y0058422D01*
X0034404Y0058348D01*
X0034420Y0058273D01*
X0034432Y0058197D01*
X0034440Y0058121D01*
X0034444Y0058044D01*
X0034444Y0057968D01*
X0034440Y0057891D01*
X0034432Y0057815D01*
X0034420Y0057739D01*
X0034404Y0057664D01*
X0034384Y0057590D01*
X0034361Y0057517D01*
X0034333Y0057446D01*
X0034303Y0057375D01*
X0034268Y0057307D01*
X0034230Y0057241D01*
X0034189Y0057176D01*
X0034144Y0057114D01*
X0034096Y0057054D01*
X0034045Y0056997D01*
X0033991Y0056942D01*
X0033935Y0056891D01*
X0033875Y0056842D01*
X0033814Y0056796D01*
X0033750Y0056754D01*
X0033684Y0056715D01*
X0033616Y0056680D01*
X0033546Y0056648D01*
X0033475Y0056620D01*
X0033402Y0056595D01*
X0033328Y0056575D01*
X0033254Y0056558D01*
X0033178Y0056545D01*
X0033102Y0056536D01*
X0033025Y0056531D01*
X0032949Y0056530D01*
X0032872Y0056533D01*
X0032796Y0056540D01*
X0032720Y0056551D01*
X0032645Y0056566D01*
X0032571Y0056585D01*
X0032497Y0056607D01*
X0032425Y0056633D01*
X0032355Y0056663D01*
X0032286Y0056697D01*
X0032219Y0056734D01*
X0032154Y0056775D01*
X0032091Y0056819D01*
X0032031Y0056866D01*
X0031973Y0056916D01*
X0031918Y0056969D01*
X0031865Y0057025D01*
X0031816Y0057084D01*
X0031769Y0057145D01*
X0031726Y0057208D01*
X0031687Y0057274D01*
X0031650Y0057341D01*
X0031618Y0057410D01*
X0031588Y0057481D01*
X0031563Y0057554D01*
X0031541Y0057627D01*
X0031524Y0057702D01*
X0031510Y0057777D01*
X0031500Y0057853D01*
X0031494Y0057929D01*
X0031492Y0058006D01*
X0057201Y0015717D02*
X0057203Y0015801D01*
X0057209Y0015884D01*
X0057219Y0015967D01*
X0057233Y0016050D01*
X0057250Y0016132D01*
X0057272Y0016213D01*
X0057297Y0016292D01*
X0057326Y0016371D01*
X0057359Y0016448D01*
X0057395Y0016523D01*
X0057435Y0016597D01*
X0057478Y0016669D01*
X0057525Y0016738D01*
X0057575Y0016805D01*
X0057628Y0016870D01*
X0057684Y0016932D01*
X0057742Y0016992D01*
X0057804Y0017049D01*
X0057868Y0017102D01*
X0057935Y0017153D01*
X0058004Y0017200D01*
X0058075Y0017245D01*
X0058148Y0017285D01*
X0058223Y0017322D01*
X0058300Y0017356D01*
X0058378Y0017386D01*
X0058457Y0017412D01*
X0058538Y0017435D01*
X0058620Y0017453D01*
X0058702Y0017468D01*
X0058785Y0017479D01*
X0058868Y0017486D01*
X0058952Y0017489D01*
X0059036Y0017488D01*
X0059119Y0017483D01*
X0059203Y0017474D01*
X0059285Y0017461D01*
X0059367Y0017445D01*
X0059448Y0017424D01*
X0059529Y0017400D01*
X0059607Y0017372D01*
X0059685Y0017340D01*
X0059761Y0017304D01*
X0059835Y0017265D01*
X0059907Y0017223D01*
X0059977Y0017177D01*
X0060045Y0017128D01*
X0060110Y0017076D01*
X0060173Y0017021D01*
X0060233Y0016963D01*
X0060291Y0016902D01*
X0060345Y0016838D01*
X0060397Y0016772D01*
X0060445Y0016704D01*
X0060490Y0016633D01*
X0060531Y0016560D01*
X0060570Y0016486D01*
X0060604Y0016410D01*
X0060635Y0016332D01*
X0060662Y0016253D01*
X0060686Y0016172D01*
X0060705Y0016091D01*
X0060721Y0016009D01*
X0060733Y0015926D01*
X0060741Y0015842D01*
X0060745Y0015759D01*
X0060745Y0015675D01*
X0060741Y0015592D01*
X0060733Y0015508D01*
X0060721Y0015425D01*
X0060705Y0015343D01*
X0060686Y0015262D01*
X0060662Y0015181D01*
X0060635Y0015102D01*
X0060604Y0015024D01*
X0060570Y0014948D01*
X0060531Y0014874D01*
X0060490Y0014801D01*
X0060445Y0014730D01*
X0060397Y0014662D01*
X0060345Y0014596D01*
X0060291Y0014532D01*
X0060233Y0014471D01*
X0060173Y0014413D01*
X0060110Y0014358D01*
X0060045Y0014306D01*
X0059977Y0014257D01*
X0059907Y0014211D01*
X0059835Y0014169D01*
X0059761Y0014130D01*
X0059685Y0014094D01*
X0059607Y0014062D01*
X0059529Y0014034D01*
X0059448Y0014010D01*
X0059367Y0013989D01*
X0059285Y0013973D01*
X0059203Y0013960D01*
X0059119Y0013951D01*
X0059036Y0013946D01*
X0058952Y0013945D01*
X0058868Y0013948D01*
X0058785Y0013955D01*
X0058702Y0013966D01*
X0058620Y0013981D01*
X0058538Y0013999D01*
X0058457Y0014022D01*
X0058378Y0014048D01*
X0058300Y0014078D01*
X0058223Y0014112D01*
X0058148Y0014149D01*
X0058075Y0014189D01*
X0058004Y0014234D01*
X0057935Y0014281D01*
X0057868Y0014332D01*
X0057804Y0014385D01*
X0057742Y0014442D01*
X0057684Y0014502D01*
X0057628Y0014564D01*
X0057575Y0014629D01*
X0057525Y0014696D01*
X0057478Y0014765D01*
X0057435Y0014837D01*
X0057395Y0014911D01*
X0057359Y0014986D01*
X0057326Y0015063D01*
X0057297Y0015142D01*
X0057272Y0015221D01*
X0057250Y0015302D01*
X0057233Y0015384D01*
X0057219Y0015467D01*
X0057209Y0015550D01*
X0057203Y0015633D01*
X0057201Y0015717D01*
X0069012Y0015717D02*
X0069014Y0015801D01*
X0069020Y0015884D01*
X0069030Y0015967D01*
X0069044Y0016050D01*
X0069061Y0016132D01*
X0069083Y0016213D01*
X0069108Y0016292D01*
X0069137Y0016371D01*
X0069170Y0016448D01*
X0069206Y0016523D01*
X0069246Y0016597D01*
X0069289Y0016669D01*
X0069336Y0016738D01*
X0069386Y0016805D01*
X0069439Y0016870D01*
X0069495Y0016932D01*
X0069553Y0016992D01*
X0069615Y0017049D01*
X0069679Y0017102D01*
X0069746Y0017153D01*
X0069815Y0017200D01*
X0069886Y0017245D01*
X0069959Y0017285D01*
X0070034Y0017322D01*
X0070111Y0017356D01*
X0070189Y0017386D01*
X0070268Y0017412D01*
X0070349Y0017435D01*
X0070431Y0017453D01*
X0070513Y0017468D01*
X0070596Y0017479D01*
X0070679Y0017486D01*
X0070763Y0017489D01*
X0070847Y0017488D01*
X0070930Y0017483D01*
X0071014Y0017474D01*
X0071096Y0017461D01*
X0071178Y0017445D01*
X0071259Y0017424D01*
X0071340Y0017400D01*
X0071418Y0017372D01*
X0071496Y0017340D01*
X0071572Y0017304D01*
X0071646Y0017265D01*
X0071718Y0017223D01*
X0071788Y0017177D01*
X0071856Y0017128D01*
X0071921Y0017076D01*
X0071984Y0017021D01*
X0072044Y0016963D01*
X0072102Y0016902D01*
X0072156Y0016838D01*
X0072208Y0016772D01*
X0072256Y0016704D01*
X0072301Y0016633D01*
X0072342Y0016560D01*
X0072381Y0016486D01*
X0072415Y0016410D01*
X0072446Y0016332D01*
X0072473Y0016253D01*
X0072497Y0016172D01*
X0072516Y0016091D01*
X0072532Y0016009D01*
X0072544Y0015926D01*
X0072552Y0015842D01*
X0072556Y0015759D01*
X0072556Y0015675D01*
X0072552Y0015592D01*
X0072544Y0015508D01*
X0072532Y0015425D01*
X0072516Y0015343D01*
X0072497Y0015262D01*
X0072473Y0015181D01*
X0072446Y0015102D01*
X0072415Y0015024D01*
X0072381Y0014948D01*
X0072342Y0014874D01*
X0072301Y0014801D01*
X0072256Y0014730D01*
X0072208Y0014662D01*
X0072156Y0014596D01*
X0072102Y0014532D01*
X0072044Y0014471D01*
X0071984Y0014413D01*
X0071921Y0014358D01*
X0071856Y0014306D01*
X0071788Y0014257D01*
X0071718Y0014211D01*
X0071646Y0014169D01*
X0071572Y0014130D01*
X0071496Y0014094D01*
X0071418Y0014062D01*
X0071340Y0014034D01*
X0071259Y0014010D01*
X0071178Y0013989D01*
X0071096Y0013973D01*
X0071014Y0013960D01*
X0070930Y0013951D01*
X0070847Y0013946D01*
X0070763Y0013945D01*
X0070679Y0013948D01*
X0070596Y0013955D01*
X0070513Y0013966D01*
X0070431Y0013981D01*
X0070349Y0013999D01*
X0070268Y0014022D01*
X0070189Y0014048D01*
X0070111Y0014078D01*
X0070034Y0014112D01*
X0069959Y0014149D01*
X0069886Y0014189D01*
X0069815Y0014234D01*
X0069746Y0014281D01*
X0069679Y0014332D01*
X0069615Y0014385D01*
X0069553Y0014442D01*
X0069495Y0014502D01*
X0069439Y0014564D01*
X0069386Y0014629D01*
X0069336Y0014696D01*
X0069289Y0014765D01*
X0069246Y0014837D01*
X0069206Y0014911D01*
X0069170Y0014986D01*
X0069137Y0015063D01*
X0069108Y0015142D01*
X0069083Y0015221D01*
X0069061Y0015302D01*
X0069044Y0015384D01*
X0069030Y0015467D01*
X0069020Y0015550D01*
X0069014Y0015633D01*
X0069012Y0015717D01*
X0105186Y0021491D02*
X0105188Y0021638D01*
X0105194Y0021784D01*
X0105204Y0021930D01*
X0105218Y0022076D01*
X0105236Y0022222D01*
X0105257Y0022367D01*
X0105283Y0022511D01*
X0105313Y0022655D01*
X0105346Y0022797D01*
X0105383Y0022939D01*
X0105424Y0023080D01*
X0105469Y0023219D01*
X0105518Y0023358D01*
X0105570Y0023495D01*
X0105627Y0023630D01*
X0105686Y0023764D01*
X0105750Y0023896D01*
X0105817Y0024026D01*
X0105887Y0024155D01*
X0105961Y0024282D01*
X0106038Y0024406D01*
X0106119Y0024529D01*
X0106203Y0024649D01*
X0106290Y0024767D01*
X0106380Y0024882D01*
X0106473Y0024995D01*
X0106570Y0025106D01*
X0106669Y0025214D01*
X0106771Y0025319D01*
X0106876Y0025421D01*
X0106984Y0025520D01*
X0107095Y0025617D01*
X0107208Y0025710D01*
X0107323Y0025800D01*
X0107441Y0025887D01*
X0107561Y0025971D01*
X0107684Y0026052D01*
X0107808Y0026129D01*
X0107935Y0026203D01*
X0108064Y0026273D01*
X0108194Y0026340D01*
X0108326Y0026404D01*
X0108460Y0026463D01*
X0108595Y0026520D01*
X0108732Y0026572D01*
X0108871Y0026621D01*
X0109010Y0026666D01*
X0109151Y0026707D01*
X0109293Y0026744D01*
X0109435Y0026777D01*
X0109579Y0026807D01*
X0109723Y0026833D01*
X0109868Y0026854D01*
X0110014Y0026872D01*
X0110160Y0026886D01*
X0110306Y0026896D01*
X0110452Y0026902D01*
X0110599Y0026904D01*
X0110746Y0026902D01*
X0110892Y0026896D01*
X0111038Y0026886D01*
X0111184Y0026872D01*
X0111330Y0026854D01*
X0111475Y0026833D01*
X0111619Y0026807D01*
X0111763Y0026777D01*
X0111905Y0026744D01*
X0112047Y0026707D01*
X0112188Y0026666D01*
X0112327Y0026621D01*
X0112466Y0026572D01*
X0112603Y0026520D01*
X0112738Y0026463D01*
X0112872Y0026404D01*
X0113004Y0026340D01*
X0113134Y0026273D01*
X0113263Y0026203D01*
X0113390Y0026129D01*
X0113514Y0026052D01*
X0113637Y0025971D01*
X0113757Y0025887D01*
X0113875Y0025800D01*
X0113990Y0025710D01*
X0114103Y0025617D01*
X0114214Y0025520D01*
X0114322Y0025421D01*
X0114427Y0025319D01*
X0114529Y0025214D01*
X0114628Y0025106D01*
X0114725Y0024995D01*
X0114818Y0024882D01*
X0114908Y0024767D01*
X0114995Y0024649D01*
X0115079Y0024529D01*
X0115160Y0024406D01*
X0115237Y0024282D01*
X0115311Y0024155D01*
X0115381Y0024026D01*
X0115448Y0023896D01*
X0115512Y0023764D01*
X0115571Y0023630D01*
X0115628Y0023495D01*
X0115680Y0023358D01*
X0115729Y0023219D01*
X0115774Y0023080D01*
X0115815Y0022939D01*
X0115852Y0022797D01*
X0115885Y0022655D01*
X0115915Y0022511D01*
X0115941Y0022367D01*
X0115962Y0022222D01*
X0115980Y0022076D01*
X0115994Y0021930D01*
X0116004Y0021784D01*
X0116010Y0021638D01*
X0116012Y0021491D01*
X0116010Y0021344D01*
X0116004Y0021198D01*
X0115994Y0021052D01*
X0115980Y0020906D01*
X0115962Y0020760D01*
X0115941Y0020615D01*
X0115915Y0020471D01*
X0115885Y0020327D01*
X0115852Y0020185D01*
X0115815Y0020043D01*
X0115774Y0019902D01*
X0115729Y0019763D01*
X0115680Y0019624D01*
X0115628Y0019487D01*
X0115571Y0019352D01*
X0115512Y0019218D01*
X0115448Y0019086D01*
X0115381Y0018956D01*
X0115311Y0018827D01*
X0115237Y0018700D01*
X0115160Y0018576D01*
X0115079Y0018453D01*
X0114995Y0018333D01*
X0114908Y0018215D01*
X0114818Y0018100D01*
X0114725Y0017987D01*
X0114628Y0017876D01*
X0114529Y0017768D01*
X0114427Y0017663D01*
X0114322Y0017561D01*
X0114214Y0017462D01*
X0114103Y0017365D01*
X0113990Y0017272D01*
X0113875Y0017182D01*
X0113757Y0017095D01*
X0113637Y0017011D01*
X0113514Y0016930D01*
X0113390Y0016853D01*
X0113263Y0016779D01*
X0113134Y0016709D01*
X0113004Y0016642D01*
X0112872Y0016578D01*
X0112738Y0016519D01*
X0112603Y0016462D01*
X0112466Y0016410D01*
X0112327Y0016361D01*
X0112188Y0016316D01*
X0112047Y0016275D01*
X0111905Y0016238D01*
X0111763Y0016205D01*
X0111619Y0016175D01*
X0111475Y0016149D01*
X0111330Y0016128D01*
X0111184Y0016110D01*
X0111038Y0016096D01*
X0110892Y0016086D01*
X0110746Y0016080D01*
X0110599Y0016078D01*
X0110452Y0016080D01*
X0110306Y0016086D01*
X0110160Y0016096D01*
X0110014Y0016110D01*
X0109868Y0016128D01*
X0109723Y0016149D01*
X0109579Y0016175D01*
X0109435Y0016205D01*
X0109293Y0016238D01*
X0109151Y0016275D01*
X0109010Y0016316D01*
X0108871Y0016361D01*
X0108732Y0016410D01*
X0108595Y0016462D01*
X0108460Y0016519D01*
X0108326Y0016578D01*
X0108194Y0016642D01*
X0108064Y0016709D01*
X0107935Y0016779D01*
X0107808Y0016853D01*
X0107684Y0016930D01*
X0107561Y0017011D01*
X0107441Y0017095D01*
X0107323Y0017182D01*
X0107208Y0017272D01*
X0107095Y0017365D01*
X0106984Y0017462D01*
X0106876Y0017561D01*
X0106771Y0017663D01*
X0106669Y0017768D01*
X0106570Y0017876D01*
X0106473Y0017987D01*
X0106380Y0018100D01*
X0106290Y0018215D01*
X0106203Y0018333D01*
X0106119Y0018453D01*
X0106038Y0018576D01*
X0105961Y0018700D01*
X0105887Y0018827D01*
X0105817Y0018956D01*
X0105750Y0019086D01*
X0105686Y0019218D01*
X0105627Y0019352D01*
X0105570Y0019487D01*
X0105518Y0019624D01*
X0105469Y0019763D01*
X0105424Y0019902D01*
X0105383Y0020043D01*
X0105346Y0020185D01*
X0105313Y0020327D01*
X0105283Y0020471D01*
X0105257Y0020615D01*
X0105236Y0020760D01*
X0105218Y0020906D01*
X0105204Y0021052D01*
X0105194Y0021198D01*
X0105188Y0021344D01*
X0105186Y0021491D01*
X0073156Y0250117D02*
X0073158Y0250210D01*
X0073164Y0250302D01*
X0073174Y0250394D01*
X0073188Y0250485D01*
X0073205Y0250576D01*
X0073227Y0250666D01*
X0073252Y0250755D01*
X0073281Y0250843D01*
X0073314Y0250929D01*
X0073351Y0251014D01*
X0073391Y0251098D01*
X0073435Y0251179D01*
X0073482Y0251259D01*
X0073532Y0251337D01*
X0073586Y0251412D01*
X0073643Y0251485D01*
X0073703Y0251555D01*
X0073766Y0251623D01*
X0073832Y0251688D01*
X0073900Y0251750D01*
X0073971Y0251810D01*
X0074045Y0251866D01*
X0074121Y0251919D01*
X0074199Y0251968D01*
X0074279Y0252015D01*
X0074361Y0252057D01*
X0074445Y0252097D01*
X0074530Y0252132D01*
X0074617Y0252164D01*
X0074705Y0252193D01*
X0074794Y0252217D01*
X0074884Y0252238D01*
X0074975Y0252254D01*
X0075067Y0252267D01*
X0075159Y0252276D01*
X0075252Y0252281D01*
X0075344Y0252282D01*
X0075437Y0252279D01*
X0075529Y0252272D01*
X0075621Y0252261D01*
X0075712Y0252246D01*
X0075803Y0252228D01*
X0075893Y0252205D01*
X0075981Y0252179D01*
X0076069Y0252149D01*
X0076155Y0252115D01*
X0076239Y0252078D01*
X0076322Y0252036D01*
X0076403Y0251992D01*
X0076483Y0251944D01*
X0076560Y0251893D01*
X0076634Y0251838D01*
X0076707Y0251780D01*
X0076777Y0251720D01*
X0076844Y0251656D01*
X0076908Y0251590D01*
X0076970Y0251520D01*
X0077028Y0251449D01*
X0077083Y0251375D01*
X0077135Y0251298D01*
X0077184Y0251219D01*
X0077230Y0251139D01*
X0077272Y0251056D01*
X0077310Y0250972D01*
X0077345Y0250886D01*
X0077376Y0250799D01*
X0077403Y0250711D01*
X0077426Y0250621D01*
X0077446Y0250531D01*
X0077462Y0250440D01*
X0077474Y0250348D01*
X0077482Y0250256D01*
X0077486Y0250163D01*
X0077486Y0250071D01*
X0077482Y0249978D01*
X0077474Y0249886D01*
X0077462Y0249794D01*
X0077446Y0249703D01*
X0077426Y0249613D01*
X0077403Y0249523D01*
X0077376Y0249435D01*
X0077345Y0249348D01*
X0077310Y0249262D01*
X0077272Y0249178D01*
X0077230Y0249095D01*
X0077184Y0249015D01*
X0077135Y0248936D01*
X0077083Y0248859D01*
X0077028Y0248785D01*
X0076970Y0248714D01*
X0076908Y0248644D01*
X0076844Y0248578D01*
X0076777Y0248514D01*
X0076707Y0248454D01*
X0076634Y0248396D01*
X0076560Y0248341D01*
X0076483Y0248290D01*
X0076404Y0248242D01*
X0076322Y0248198D01*
X0076239Y0248156D01*
X0076155Y0248119D01*
X0076069Y0248085D01*
X0075981Y0248055D01*
X0075893Y0248029D01*
X0075803Y0248006D01*
X0075712Y0247988D01*
X0075621Y0247973D01*
X0075529Y0247962D01*
X0075437Y0247955D01*
X0075344Y0247952D01*
X0075252Y0247953D01*
X0075159Y0247958D01*
X0075067Y0247967D01*
X0074975Y0247980D01*
X0074884Y0247996D01*
X0074794Y0248017D01*
X0074705Y0248041D01*
X0074617Y0248070D01*
X0074530Y0248102D01*
X0074445Y0248137D01*
X0074361Y0248177D01*
X0074279Y0248219D01*
X0074199Y0248266D01*
X0074121Y0248315D01*
X0074045Y0248368D01*
X0073971Y0248424D01*
X0073900Y0248484D01*
X0073832Y0248546D01*
X0073766Y0248611D01*
X0073703Y0248679D01*
X0073643Y0248749D01*
X0073586Y0248822D01*
X0073532Y0248897D01*
X0073482Y0248975D01*
X0073435Y0249055D01*
X0073391Y0249136D01*
X0073351Y0249220D01*
X0073314Y0249305D01*
X0073281Y0249391D01*
X0073252Y0249479D01*
X0073227Y0249568D01*
X0073205Y0249658D01*
X0073188Y0249749D01*
X0073174Y0249840D01*
X0073164Y0249932D01*
X0073158Y0250024D01*
X0073156Y0250117D01*
X0053471Y0250117D02*
X0053473Y0250210D01*
X0053479Y0250302D01*
X0053489Y0250394D01*
X0053503Y0250485D01*
X0053520Y0250576D01*
X0053542Y0250666D01*
X0053567Y0250755D01*
X0053596Y0250843D01*
X0053629Y0250929D01*
X0053666Y0251014D01*
X0053706Y0251098D01*
X0053750Y0251179D01*
X0053797Y0251259D01*
X0053847Y0251337D01*
X0053901Y0251412D01*
X0053958Y0251485D01*
X0054018Y0251555D01*
X0054081Y0251623D01*
X0054147Y0251688D01*
X0054215Y0251750D01*
X0054286Y0251810D01*
X0054360Y0251866D01*
X0054436Y0251919D01*
X0054514Y0251968D01*
X0054594Y0252015D01*
X0054676Y0252057D01*
X0054760Y0252097D01*
X0054845Y0252132D01*
X0054932Y0252164D01*
X0055020Y0252193D01*
X0055109Y0252217D01*
X0055199Y0252238D01*
X0055290Y0252254D01*
X0055382Y0252267D01*
X0055474Y0252276D01*
X0055567Y0252281D01*
X0055659Y0252282D01*
X0055752Y0252279D01*
X0055844Y0252272D01*
X0055936Y0252261D01*
X0056027Y0252246D01*
X0056118Y0252228D01*
X0056208Y0252205D01*
X0056296Y0252179D01*
X0056384Y0252149D01*
X0056470Y0252115D01*
X0056554Y0252078D01*
X0056637Y0252036D01*
X0056718Y0251992D01*
X0056798Y0251944D01*
X0056875Y0251893D01*
X0056949Y0251838D01*
X0057022Y0251780D01*
X0057092Y0251720D01*
X0057159Y0251656D01*
X0057223Y0251590D01*
X0057285Y0251520D01*
X0057343Y0251449D01*
X0057398Y0251375D01*
X0057450Y0251298D01*
X0057499Y0251219D01*
X0057545Y0251139D01*
X0057587Y0251056D01*
X0057625Y0250972D01*
X0057660Y0250886D01*
X0057691Y0250799D01*
X0057718Y0250711D01*
X0057741Y0250621D01*
X0057761Y0250531D01*
X0057777Y0250440D01*
X0057789Y0250348D01*
X0057797Y0250256D01*
X0057801Y0250163D01*
X0057801Y0250071D01*
X0057797Y0249978D01*
X0057789Y0249886D01*
X0057777Y0249794D01*
X0057761Y0249703D01*
X0057741Y0249613D01*
X0057718Y0249523D01*
X0057691Y0249435D01*
X0057660Y0249348D01*
X0057625Y0249262D01*
X0057587Y0249178D01*
X0057545Y0249095D01*
X0057499Y0249015D01*
X0057450Y0248936D01*
X0057398Y0248859D01*
X0057343Y0248785D01*
X0057285Y0248714D01*
X0057223Y0248644D01*
X0057159Y0248578D01*
X0057092Y0248514D01*
X0057022Y0248454D01*
X0056949Y0248396D01*
X0056875Y0248341D01*
X0056798Y0248290D01*
X0056719Y0248242D01*
X0056637Y0248198D01*
X0056554Y0248156D01*
X0056470Y0248119D01*
X0056384Y0248085D01*
X0056296Y0248055D01*
X0056208Y0248029D01*
X0056118Y0248006D01*
X0056027Y0247988D01*
X0055936Y0247973D01*
X0055844Y0247962D01*
X0055752Y0247955D01*
X0055659Y0247952D01*
X0055567Y0247953D01*
X0055474Y0247958D01*
X0055382Y0247967D01*
X0055290Y0247980D01*
X0055199Y0247996D01*
X0055109Y0248017D01*
X0055020Y0248041D01*
X0054932Y0248070D01*
X0054845Y0248102D01*
X0054760Y0248137D01*
X0054676Y0248177D01*
X0054594Y0248219D01*
X0054514Y0248266D01*
X0054436Y0248315D01*
X0054360Y0248368D01*
X0054286Y0248424D01*
X0054215Y0248484D01*
X0054147Y0248546D01*
X0054081Y0248611D01*
X0054018Y0248679D01*
X0053958Y0248749D01*
X0053901Y0248822D01*
X0053847Y0248897D01*
X0053797Y0248975D01*
X0053750Y0249055D01*
X0053706Y0249136D01*
X0053666Y0249220D01*
X0053629Y0249305D01*
X0053596Y0249391D01*
X0053567Y0249479D01*
X0053542Y0249568D01*
X0053520Y0249658D01*
X0053503Y0249749D01*
X0053489Y0249840D01*
X0053479Y0249932D01*
X0053473Y0250024D01*
X0053471Y0250117D01*
X0014635Y0249837D02*
X0014637Y0249984D01*
X0014643Y0250130D01*
X0014653Y0250276D01*
X0014667Y0250422D01*
X0014685Y0250568D01*
X0014706Y0250713D01*
X0014732Y0250857D01*
X0014762Y0251001D01*
X0014795Y0251143D01*
X0014832Y0251285D01*
X0014873Y0251426D01*
X0014918Y0251565D01*
X0014967Y0251704D01*
X0015019Y0251841D01*
X0015076Y0251976D01*
X0015135Y0252110D01*
X0015199Y0252242D01*
X0015266Y0252372D01*
X0015336Y0252501D01*
X0015410Y0252628D01*
X0015487Y0252752D01*
X0015568Y0252875D01*
X0015652Y0252995D01*
X0015739Y0253113D01*
X0015829Y0253228D01*
X0015922Y0253341D01*
X0016019Y0253452D01*
X0016118Y0253560D01*
X0016220Y0253665D01*
X0016325Y0253767D01*
X0016433Y0253866D01*
X0016544Y0253963D01*
X0016657Y0254056D01*
X0016772Y0254146D01*
X0016890Y0254233D01*
X0017010Y0254317D01*
X0017133Y0254398D01*
X0017257Y0254475D01*
X0017384Y0254549D01*
X0017513Y0254619D01*
X0017643Y0254686D01*
X0017775Y0254750D01*
X0017909Y0254809D01*
X0018044Y0254866D01*
X0018181Y0254918D01*
X0018320Y0254967D01*
X0018459Y0255012D01*
X0018600Y0255053D01*
X0018742Y0255090D01*
X0018884Y0255123D01*
X0019028Y0255153D01*
X0019172Y0255179D01*
X0019317Y0255200D01*
X0019463Y0255218D01*
X0019609Y0255232D01*
X0019755Y0255242D01*
X0019901Y0255248D01*
X0020048Y0255250D01*
X0020195Y0255248D01*
X0020341Y0255242D01*
X0020487Y0255232D01*
X0020633Y0255218D01*
X0020779Y0255200D01*
X0020924Y0255179D01*
X0021068Y0255153D01*
X0021212Y0255123D01*
X0021354Y0255090D01*
X0021496Y0255053D01*
X0021637Y0255012D01*
X0021776Y0254967D01*
X0021915Y0254918D01*
X0022052Y0254866D01*
X0022187Y0254809D01*
X0022321Y0254750D01*
X0022453Y0254686D01*
X0022583Y0254619D01*
X0022712Y0254549D01*
X0022839Y0254475D01*
X0022963Y0254398D01*
X0023086Y0254317D01*
X0023206Y0254233D01*
X0023324Y0254146D01*
X0023439Y0254056D01*
X0023552Y0253963D01*
X0023663Y0253866D01*
X0023771Y0253767D01*
X0023876Y0253665D01*
X0023978Y0253560D01*
X0024077Y0253452D01*
X0024174Y0253341D01*
X0024267Y0253228D01*
X0024357Y0253113D01*
X0024444Y0252995D01*
X0024528Y0252875D01*
X0024609Y0252752D01*
X0024686Y0252628D01*
X0024760Y0252501D01*
X0024830Y0252372D01*
X0024897Y0252242D01*
X0024961Y0252110D01*
X0025020Y0251976D01*
X0025077Y0251841D01*
X0025129Y0251704D01*
X0025178Y0251565D01*
X0025223Y0251426D01*
X0025264Y0251285D01*
X0025301Y0251143D01*
X0025334Y0251001D01*
X0025364Y0250857D01*
X0025390Y0250713D01*
X0025411Y0250568D01*
X0025429Y0250422D01*
X0025443Y0250276D01*
X0025453Y0250130D01*
X0025459Y0249984D01*
X0025461Y0249837D01*
X0025459Y0249690D01*
X0025453Y0249544D01*
X0025443Y0249398D01*
X0025429Y0249252D01*
X0025411Y0249106D01*
X0025390Y0248961D01*
X0025364Y0248817D01*
X0025334Y0248673D01*
X0025301Y0248531D01*
X0025264Y0248389D01*
X0025223Y0248248D01*
X0025178Y0248109D01*
X0025129Y0247970D01*
X0025077Y0247833D01*
X0025020Y0247698D01*
X0024961Y0247564D01*
X0024897Y0247432D01*
X0024830Y0247302D01*
X0024760Y0247173D01*
X0024686Y0247046D01*
X0024609Y0246922D01*
X0024528Y0246799D01*
X0024444Y0246679D01*
X0024357Y0246561D01*
X0024267Y0246446D01*
X0024174Y0246333D01*
X0024077Y0246222D01*
X0023978Y0246114D01*
X0023876Y0246009D01*
X0023771Y0245907D01*
X0023663Y0245808D01*
X0023552Y0245711D01*
X0023439Y0245618D01*
X0023324Y0245528D01*
X0023206Y0245441D01*
X0023086Y0245357D01*
X0022963Y0245276D01*
X0022839Y0245199D01*
X0022712Y0245125D01*
X0022583Y0245055D01*
X0022453Y0244988D01*
X0022321Y0244924D01*
X0022187Y0244865D01*
X0022052Y0244808D01*
X0021915Y0244756D01*
X0021776Y0244707D01*
X0021637Y0244662D01*
X0021496Y0244621D01*
X0021354Y0244584D01*
X0021212Y0244551D01*
X0021068Y0244521D01*
X0020924Y0244495D01*
X0020779Y0244474D01*
X0020633Y0244456D01*
X0020487Y0244442D01*
X0020341Y0244432D01*
X0020195Y0244426D01*
X0020048Y0244424D01*
X0019901Y0244426D01*
X0019755Y0244432D01*
X0019609Y0244442D01*
X0019463Y0244456D01*
X0019317Y0244474D01*
X0019172Y0244495D01*
X0019028Y0244521D01*
X0018884Y0244551D01*
X0018742Y0244584D01*
X0018600Y0244621D01*
X0018459Y0244662D01*
X0018320Y0244707D01*
X0018181Y0244756D01*
X0018044Y0244808D01*
X0017909Y0244865D01*
X0017775Y0244924D01*
X0017643Y0244988D01*
X0017513Y0245055D01*
X0017384Y0245125D01*
X0017257Y0245199D01*
X0017133Y0245276D01*
X0017010Y0245357D01*
X0016890Y0245441D01*
X0016772Y0245528D01*
X0016657Y0245618D01*
X0016544Y0245711D01*
X0016433Y0245808D01*
X0016325Y0245907D01*
X0016220Y0246009D01*
X0016118Y0246114D01*
X0016019Y0246222D01*
X0015922Y0246333D01*
X0015829Y0246446D01*
X0015739Y0246561D01*
X0015652Y0246679D01*
X0015568Y0246799D01*
X0015487Y0246922D01*
X0015410Y0247046D01*
X0015336Y0247173D01*
X0015266Y0247302D01*
X0015199Y0247432D01*
X0015135Y0247564D01*
X0015076Y0247698D01*
X0015019Y0247833D01*
X0014967Y0247970D01*
X0014918Y0248109D01*
X0014873Y0248248D01*
X0014832Y0248389D01*
X0014795Y0248531D01*
X0014762Y0248673D01*
X0014732Y0248817D01*
X0014706Y0248961D01*
X0014685Y0249106D01*
X0014667Y0249252D01*
X0014653Y0249398D01*
X0014643Y0249544D01*
X0014637Y0249690D01*
X0014635Y0249837D01*
D11*
X0056479Y0202251D02*
X0079899Y0202251D01*
X0079899Y0194444D02*
X0079899Y0210058D01*
X0079899Y0186670D02*
X0079899Y0171056D01*
X0056479Y0171056D01*
X0056479Y0186670D01*
X0068189Y0178863D02*
X0068189Y0171056D01*
X0056479Y0163282D02*
X0068189Y0151572D01*
X0064285Y0147668D02*
X0079899Y0163282D01*
X0079899Y0147668D02*
X0056479Y0147668D01*
X0060382Y0139894D02*
X0056479Y0135990D01*
X0056479Y0128184D01*
X0060382Y0124280D01*
X0075995Y0124280D01*
X0079899Y0128184D01*
X0079899Y0135990D01*
X0075995Y0139894D01*
X0075995Y0116506D02*
X0060382Y0100892D01*
X0056479Y0104796D01*
X0056479Y0112602D01*
X0060382Y0116506D01*
X0075995Y0116506D01*
X0079899Y0112602D01*
X0079899Y0104796D01*
X0075995Y0100892D01*
X0060382Y0100892D01*
X0068189Y0093118D02*
X0064285Y0089215D01*
X0064285Y0077505D01*
X0064285Y0069730D02*
X0064285Y0054117D01*
X0072092Y0054117D02*
X0072092Y0065827D01*
X0072092Y0069730D01*
X0079899Y0065827D02*
X0056479Y0065827D01*
X0056479Y0058020D02*
X0079899Y0058020D01*
X0079899Y0077505D02*
X0079899Y0089215D01*
X0075995Y0093118D01*
X0068189Y0093118D01*
X0056479Y0077505D02*
X0079899Y0077505D01*
D12*
X0067121Y0096551D02*
X0065586Y0096551D01*
X0062517Y0096551D02*
X0062517Y0095017D01*
X0062517Y0096551D02*
X0056379Y0096551D01*
X0056379Y0095017D02*
X0056379Y0098086D01*
X0034638Y0065244D02*
X0040206Y0059676D01*
X0034638Y0059676D01*
X0034638Y0065244D01*
X0030045Y0069837D01*
X0024477Y0069837D01*
X0010558Y0055918D01*
X0010558Y0050350D01*
X0025312Y0035596D01*
X0030880Y0035596D01*
X0044799Y0049515D01*
X0044799Y0055083D01*
X0040206Y0059676D01*
X0031576Y0054645D02*
X0031576Y0050788D01*
X0031574Y0050702D01*
X0031569Y0050616D01*
X0031559Y0050531D01*
X0031546Y0050446D01*
X0031529Y0050362D01*
X0031509Y0050278D01*
X0031485Y0050196D01*
X0031457Y0050115D01*
X0031426Y0050034D01*
X0031392Y0049956D01*
X0031354Y0049879D01*
X0031312Y0049804D01*
X0031268Y0049730D01*
X0031220Y0049659D01*
X0031169Y0049589D01*
X0031115Y0049522D01*
X0031059Y0049458D01*
X0030999Y0049396D01*
X0030937Y0049336D01*
X0030873Y0049280D01*
X0030806Y0049226D01*
X0030736Y0049175D01*
X0030665Y0049127D01*
X0030592Y0049083D01*
X0030516Y0049041D01*
X0030439Y0049003D01*
X0030361Y0048969D01*
X0030280Y0048938D01*
X0030199Y0048910D01*
X0030117Y0048886D01*
X0030033Y0048866D01*
X0029949Y0048849D01*
X0029864Y0048836D01*
X0029779Y0048826D01*
X0029693Y0048821D01*
X0029607Y0048819D01*
X0025750Y0048819D01*
X0025664Y0048821D01*
X0025578Y0048826D01*
X0025493Y0048836D01*
X0025408Y0048849D01*
X0025324Y0048866D01*
X0025240Y0048886D01*
X0025158Y0048910D01*
X0025077Y0048938D01*
X0024996Y0048969D01*
X0024918Y0049003D01*
X0024841Y0049041D01*
X0024765Y0049083D01*
X0024692Y0049127D01*
X0024621Y0049175D01*
X0024551Y0049226D01*
X0024484Y0049280D01*
X0024420Y0049336D01*
X0024358Y0049396D01*
X0024298Y0049458D01*
X0024242Y0049522D01*
X0024188Y0049589D01*
X0024137Y0049659D01*
X0024089Y0049730D01*
X0024045Y0049804D01*
X0024003Y0049879D01*
X0023965Y0049956D01*
X0023931Y0050034D01*
X0023900Y0050115D01*
X0023872Y0050196D01*
X0023848Y0050278D01*
X0023828Y0050362D01*
X0023811Y0050446D01*
X0023798Y0050531D01*
X0023788Y0050616D01*
X0023783Y0050702D01*
X0023781Y0050788D01*
X0023781Y0054645D01*
X0023783Y0054731D01*
X0023788Y0054817D01*
X0023798Y0054902D01*
X0023811Y0054987D01*
X0023828Y0055071D01*
X0023848Y0055155D01*
X0023872Y0055237D01*
X0023900Y0055318D01*
X0023931Y0055399D01*
X0023965Y0055477D01*
X0024003Y0055554D01*
X0024045Y0055630D01*
X0024089Y0055703D01*
X0024137Y0055774D01*
X0024188Y0055844D01*
X0024242Y0055911D01*
X0024298Y0055975D01*
X0024358Y0056037D01*
X0024420Y0056097D01*
X0024484Y0056153D01*
X0024551Y0056207D01*
X0024621Y0056258D01*
X0024692Y0056306D01*
X0024766Y0056350D01*
X0024841Y0056392D01*
X0024918Y0056430D01*
X0024996Y0056464D01*
X0025077Y0056495D01*
X0025158Y0056523D01*
X0025240Y0056547D01*
X0025324Y0056567D01*
X0025408Y0056584D01*
X0025493Y0056597D01*
X0025578Y0056607D01*
X0025664Y0056612D01*
X0025750Y0056614D01*
X0029607Y0056614D01*
X0029693Y0056612D01*
X0029779Y0056607D01*
X0029864Y0056597D01*
X0029949Y0056584D01*
X0030033Y0056567D01*
X0030117Y0056547D01*
X0030199Y0056523D01*
X0030280Y0056495D01*
X0030361Y0056464D01*
X0030439Y0056430D01*
X0030516Y0056392D01*
X0030592Y0056350D01*
X0030665Y0056306D01*
X0030736Y0056258D01*
X0030806Y0056207D01*
X0030873Y0056153D01*
X0030937Y0056097D01*
X0030999Y0056037D01*
X0031059Y0055975D01*
X0031115Y0055911D01*
X0031169Y0055844D01*
X0031220Y0055774D01*
X0031268Y0055703D01*
X0031312Y0055630D01*
X0031354Y0055554D01*
X0031392Y0055477D01*
X0031426Y0055399D01*
X0031457Y0055318D01*
X0031485Y0055237D01*
X0031509Y0055155D01*
X0031529Y0055071D01*
X0031546Y0054987D01*
X0031559Y0054902D01*
X0031569Y0054817D01*
X0031574Y0054731D01*
X0031576Y0054645D01*
X0021773Y0052717D02*
X0021775Y0052870D01*
X0021781Y0053024D01*
X0021791Y0053177D01*
X0021805Y0053329D01*
X0021823Y0053482D01*
X0021845Y0053633D01*
X0021870Y0053784D01*
X0021900Y0053935D01*
X0021934Y0054085D01*
X0021971Y0054233D01*
X0022012Y0054381D01*
X0022057Y0054527D01*
X0022106Y0054673D01*
X0022159Y0054817D01*
X0022215Y0054959D01*
X0022275Y0055100D01*
X0022339Y0055240D01*
X0022406Y0055378D01*
X0022477Y0055514D01*
X0022552Y0055648D01*
X0022629Y0055780D01*
X0022711Y0055910D01*
X0022795Y0056038D01*
X0022883Y0056164D01*
X0022974Y0056287D01*
X0023068Y0056408D01*
X0023166Y0056526D01*
X0023266Y0056642D01*
X0023370Y0056755D01*
X0023476Y0056866D01*
X0023585Y0056974D01*
X0023697Y0057079D01*
X0023811Y0057180D01*
X0023929Y0057279D01*
X0024048Y0057375D01*
X0024170Y0057468D01*
X0024295Y0057557D01*
X0024422Y0057644D01*
X0024551Y0057726D01*
X0024682Y0057806D01*
X0024815Y0057882D01*
X0024950Y0057955D01*
X0025087Y0058024D01*
X0025226Y0058089D01*
X0025366Y0058151D01*
X0025508Y0058209D01*
X0025651Y0058264D01*
X0025796Y0058315D01*
X0025942Y0058362D01*
X0026089Y0058405D01*
X0026237Y0058444D01*
X0026386Y0058480D01*
X0026536Y0058511D01*
X0026687Y0058539D01*
X0026838Y0058563D01*
X0026991Y0058583D01*
X0027143Y0058599D01*
X0027296Y0058611D01*
X0027449Y0058619D01*
X0027602Y0058623D01*
X0027756Y0058623D01*
X0027909Y0058619D01*
X0028062Y0058611D01*
X0028215Y0058599D01*
X0028367Y0058583D01*
X0028520Y0058563D01*
X0028671Y0058539D01*
X0028822Y0058511D01*
X0028972Y0058480D01*
X0029121Y0058444D01*
X0029269Y0058405D01*
X0029416Y0058362D01*
X0029562Y0058315D01*
X0029707Y0058264D01*
X0029850Y0058209D01*
X0029992Y0058151D01*
X0030132Y0058089D01*
X0030271Y0058024D01*
X0030408Y0057955D01*
X0030543Y0057882D01*
X0030676Y0057806D01*
X0030807Y0057726D01*
X0030936Y0057644D01*
X0031063Y0057557D01*
X0031188Y0057468D01*
X0031310Y0057375D01*
X0031429Y0057279D01*
X0031547Y0057180D01*
X0031661Y0057079D01*
X0031773Y0056974D01*
X0031882Y0056866D01*
X0031988Y0056755D01*
X0032092Y0056642D01*
X0032192Y0056526D01*
X0032290Y0056408D01*
X0032384Y0056287D01*
X0032475Y0056164D01*
X0032563Y0056038D01*
X0032647Y0055910D01*
X0032729Y0055780D01*
X0032806Y0055648D01*
X0032881Y0055514D01*
X0032952Y0055378D01*
X0033019Y0055240D01*
X0033083Y0055100D01*
X0033143Y0054959D01*
X0033199Y0054817D01*
X0033252Y0054673D01*
X0033301Y0054527D01*
X0033346Y0054381D01*
X0033387Y0054233D01*
X0033424Y0054085D01*
X0033458Y0053935D01*
X0033488Y0053784D01*
X0033513Y0053633D01*
X0033535Y0053482D01*
X0033553Y0053329D01*
X0033567Y0053177D01*
X0033577Y0053024D01*
X0033583Y0052870D01*
X0033585Y0052717D01*
X0033583Y0052564D01*
X0033577Y0052410D01*
X0033567Y0052257D01*
X0033553Y0052105D01*
X0033535Y0051952D01*
X0033513Y0051801D01*
X0033488Y0051650D01*
X0033458Y0051499D01*
X0033424Y0051349D01*
X0033387Y0051201D01*
X0033346Y0051053D01*
X0033301Y0050907D01*
X0033252Y0050761D01*
X0033199Y0050617D01*
X0033143Y0050475D01*
X0033083Y0050334D01*
X0033019Y0050194D01*
X0032952Y0050056D01*
X0032881Y0049920D01*
X0032806Y0049786D01*
X0032729Y0049654D01*
X0032647Y0049524D01*
X0032563Y0049396D01*
X0032475Y0049270D01*
X0032384Y0049147D01*
X0032290Y0049026D01*
X0032192Y0048908D01*
X0032092Y0048792D01*
X0031988Y0048679D01*
X0031882Y0048568D01*
X0031773Y0048460D01*
X0031661Y0048355D01*
X0031547Y0048254D01*
X0031429Y0048155D01*
X0031310Y0048059D01*
X0031188Y0047966D01*
X0031063Y0047877D01*
X0030936Y0047790D01*
X0030807Y0047708D01*
X0030676Y0047628D01*
X0030543Y0047552D01*
X0030408Y0047479D01*
X0030271Y0047410D01*
X0030132Y0047345D01*
X0029992Y0047283D01*
X0029850Y0047225D01*
X0029707Y0047170D01*
X0029562Y0047119D01*
X0029416Y0047072D01*
X0029269Y0047029D01*
X0029121Y0046990D01*
X0028972Y0046954D01*
X0028822Y0046923D01*
X0028671Y0046895D01*
X0028520Y0046871D01*
X0028367Y0046851D01*
X0028215Y0046835D01*
X0028062Y0046823D01*
X0027909Y0046815D01*
X0027756Y0046811D01*
X0027602Y0046811D01*
X0027449Y0046815D01*
X0027296Y0046823D01*
X0027143Y0046835D01*
X0026991Y0046851D01*
X0026838Y0046871D01*
X0026687Y0046895D01*
X0026536Y0046923D01*
X0026386Y0046954D01*
X0026237Y0046990D01*
X0026089Y0047029D01*
X0025942Y0047072D01*
X0025796Y0047119D01*
X0025651Y0047170D01*
X0025508Y0047225D01*
X0025366Y0047283D01*
X0025226Y0047345D01*
X0025087Y0047410D01*
X0024950Y0047479D01*
X0024815Y0047552D01*
X0024682Y0047628D01*
X0024551Y0047708D01*
X0024422Y0047790D01*
X0024295Y0047877D01*
X0024170Y0047966D01*
X0024048Y0048059D01*
X0023929Y0048155D01*
X0023811Y0048254D01*
X0023697Y0048355D01*
X0023585Y0048460D01*
X0023476Y0048568D01*
X0023370Y0048679D01*
X0023266Y0048792D01*
X0023166Y0048908D01*
X0023068Y0049026D01*
X0022974Y0049147D01*
X0022883Y0049270D01*
X0022795Y0049396D01*
X0022711Y0049524D01*
X0022629Y0049654D01*
X0022552Y0049786D01*
X0022477Y0049920D01*
X0022406Y0050056D01*
X0022339Y0050194D01*
X0022275Y0050334D01*
X0022215Y0050475D01*
X0022159Y0050617D01*
X0022106Y0050761D01*
X0022057Y0050907D01*
X0022012Y0051053D01*
X0021971Y0051201D01*
X0021934Y0051349D01*
X0021900Y0051499D01*
X0021870Y0051650D01*
X0021845Y0051801D01*
X0021823Y0051952D01*
X0021805Y0052105D01*
X0021791Y0052257D01*
X0021781Y0052410D01*
X0021775Y0052564D01*
X0021773Y0052717D01*
X0026008Y0063295D02*
X0027679Y0064966D01*
X0029349Y0063295D01*
X0027679Y0064966D02*
X0027679Y0059955D01*
X0051690Y0020835D02*
X0051690Y0010598D01*
X0078068Y0010598D01*
X0078068Y0020835D01*
X0051690Y0020835D01*
X0049730Y0233975D02*
X0042250Y0233975D01*
X0042250Y0249132D01*
X0042251Y0257991D02*
X0042776Y0258552D01*
X0043315Y0259099D01*
X0043867Y0259634D01*
X0044432Y0260155D01*
X0045010Y0260661D01*
X0045600Y0261154D01*
X0046201Y0261632D01*
X0046814Y0262095D01*
X0047439Y0262543D01*
X0048074Y0262976D01*
X0048719Y0263393D01*
X0049374Y0263795D01*
X0050039Y0264180D01*
X0050714Y0264548D01*
X0051396Y0264901D01*
X0052088Y0265236D01*
X0052787Y0265554D01*
X0053494Y0265856D01*
X0054208Y0266140D01*
X0054929Y0266406D01*
X0055656Y0266655D01*
X0056389Y0266886D01*
X0057127Y0267099D01*
X0057871Y0267294D01*
X0058618Y0267470D01*
X0059370Y0267628D01*
X0060126Y0267768D01*
X0060885Y0267890D01*
X0061646Y0267993D01*
X0062410Y0268077D01*
X0063176Y0268143D01*
X0063943Y0268189D01*
X0064711Y0268218D01*
X0065479Y0268227D01*
X0066247Y0268218D01*
X0067015Y0268189D01*
X0067782Y0268143D01*
X0068548Y0268077D01*
X0069312Y0267993D01*
X0070073Y0267890D01*
X0070832Y0267768D01*
X0071588Y0267628D01*
X0072340Y0267470D01*
X0073087Y0267294D01*
X0073831Y0267099D01*
X0074569Y0266886D01*
X0075302Y0266655D01*
X0076029Y0266406D01*
X0076750Y0266140D01*
X0077464Y0265856D01*
X0078171Y0265554D01*
X0078870Y0265236D01*
X0079562Y0264901D01*
X0080244Y0264548D01*
X0080919Y0264180D01*
X0081584Y0263795D01*
X0082239Y0263393D01*
X0082884Y0262976D01*
X0083519Y0262543D01*
X0084144Y0262095D01*
X0084757Y0261632D01*
X0085358Y0261154D01*
X0085948Y0260661D01*
X0086526Y0260155D01*
X0087091Y0259634D01*
X0087643Y0259099D01*
X0088182Y0258552D01*
X0088707Y0257991D01*
X0088707Y0249132D02*
X0088707Y0233975D01*
X0081227Y0233975D01*
D13*
X0032160Y0089579D02*
X0029797Y0089579D01*
X0029797Y0084854D02*
X0032160Y0084854D01*
X0029442Y0068981D02*
X0028141Y0068981D01*
X0028141Y0066379D01*
X0028141Y0067247D02*
X0029442Y0067247D01*
X0029876Y0067680D01*
X0029876Y0068548D01*
X0029442Y0068981D01*
X0026929Y0068981D02*
X0026929Y0066813D01*
X0026496Y0066379D01*
X0025628Y0066379D01*
X0025195Y0066813D01*
X0025195Y0068981D01*
D14*
X0001678Y0090713D02*
X0129079Y0090713D01*
X0129079Y0240320D01*
X0001678Y0240320D01*
X0001678Y0090713D01*
X0001782Y0166120D02*
X0001782Y0229113D01*
X0064775Y0229113D01*
X0064775Y0166120D01*
X0001782Y0166120D01*
X0066182Y0166120D02*
X0066182Y0229113D01*
X0129175Y0229113D01*
X0129175Y0166120D01*
X0066182Y0166120D01*
X0105042Y0065917D02*
X0105044Y0066042D01*
X0105050Y0066167D01*
X0105060Y0066291D01*
X0105074Y0066415D01*
X0105091Y0066539D01*
X0105113Y0066662D01*
X0105139Y0066784D01*
X0105168Y0066906D01*
X0105201Y0067026D01*
X0105239Y0067145D01*
X0105279Y0067264D01*
X0105324Y0067380D01*
X0105372Y0067495D01*
X0105424Y0067609D01*
X0105480Y0067721D01*
X0105539Y0067831D01*
X0105601Y0067939D01*
X0105667Y0068046D01*
X0105736Y0068150D01*
X0105809Y0068251D01*
X0105884Y0068351D01*
X0105963Y0068448D01*
X0106045Y0068542D01*
X0106130Y0068634D01*
X0106217Y0068723D01*
X0106308Y0068809D01*
X0106401Y0068892D01*
X0106497Y0068973D01*
X0106595Y0069050D01*
X0106695Y0069124D01*
X0106798Y0069195D01*
X0106903Y0069262D01*
X0107011Y0069327D01*
X0107120Y0069387D01*
X0107231Y0069445D01*
X0107344Y0069498D01*
X0107458Y0069548D01*
X0107574Y0069595D01*
X0107691Y0069637D01*
X0107810Y0069676D01*
X0107930Y0069712D01*
X0108051Y0069743D01*
X0108173Y0069771D01*
X0108295Y0069794D01*
X0108419Y0069814D01*
X0108543Y0069830D01*
X0108667Y0069842D01*
X0108792Y0069850D01*
X0108917Y0069854D01*
X0109041Y0069854D01*
X0109166Y0069850D01*
X0109291Y0069842D01*
X0109415Y0069830D01*
X0109539Y0069814D01*
X0109663Y0069794D01*
X0109785Y0069771D01*
X0109907Y0069743D01*
X0110028Y0069712D01*
X0110148Y0069676D01*
X0110267Y0069637D01*
X0110384Y0069595D01*
X0110500Y0069548D01*
X0110614Y0069498D01*
X0110727Y0069445D01*
X0110838Y0069387D01*
X0110948Y0069327D01*
X0111055Y0069262D01*
X0111160Y0069195D01*
X0111263Y0069124D01*
X0111363Y0069050D01*
X0111461Y0068973D01*
X0111557Y0068892D01*
X0111650Y0068809D01*
X0111741Y0068723D01*
X0111828Y0068634D01*
X0111913Y0068542D01*
X0111995Y0068448D01*
X0112074Y0068351D01*
X0112149Y0068251D01*
X0112222Y0068150D01*
X0112291Y0068046D01*
X0112357Y0067939D01*
X0112419Y0067831D01*
X0112478Y0067721D01*
X0112534Y0067609D01*
X0112586Y0067495D01*
X0112634Y0067380D01*
X0112679Y0067264D01*
X0112719Y0067145D01*
X0112757Y0067026D01*
X0112790Y0066906D01*
X0112819Y0066784D01*
X0112845Y0066662D01*
X0112867Y0066539D01*
X0112884Y0066415D01*
X0112898Y0066291D01*
X0112908Y0066167D01*
X0112914Y0066042D01*
X0112916Y0065917D01*
X0112914Y0065792D01*
X0112908Y0065667D01*
X0112898Y0065543D01*
X0112884Y0065419D01*
X0112867Y0065295D01*
X0112845Y0065172D01*
X0112819Y0065050D01*
X0112790Y0064928D01*
X0112757Y0064808D01*
X0112719Y0064689D01*
X0112679Y0064570D01*
X0112634Y0064454D01*
X0112586Y0064339D01*
X0112534Y0064225D01*
X0112478Y0064113D01*
X0112419Y0064003D01*
X0112357Y0063895D01*
X0112291Y0063788D01*
X0112222Y0063684D01*
X0112149Y0063583D01*
X0112074Y0063483D01*
X0111995Y0063386D01*
X0111913Y0063292D01*
X0111828Y0063200D01*
X0111741Y0063111D01*
X0111650Y0063025D01*
X0111557Y0062942D01*
X0111461Y0062861D01*
X0111363Y0062784D01*
X0111263Y0062710D01*
X0111160Y0062639D01*
X0111055Y0062572D01*
X0110947Y0062507D01*
X0110838Y0062447D01*
X0110727Y0062389D01*
X0110614Y0062336D01*
X0110500Y0062286D01*
X0110384Y0062239D01*
X0110267Y0062197D01*
X0110148Y0062158D01*
X0110028Y0062122D01*
X0109907Y0062091D01*
X0109785Y0062063D01*
X0109663Y0062040D01*
X0109539Y0062020D01*
X0109415Y0062004D01*
X0109291Y0061992D01*
X0109166Y0061984D01*
X0109041Y0061980D01*
X0108917Y0061980D01*
X0108792Y0061984D01*
X0108667Y0061992D01*
X0108543Y0062004D01*
X0108419Y0062020D01*
X0108295Y0062040D01*
X0108173Y0062063D01*
X0108051Y0062091D01*
X0107930Y0062122D01*
X0107810Y0062158D01*
X0107691Y0062197D01*
X0107574Y0062239D01*
X0107458Y0062286D01*
X0107344Y0062336D01*
X0107231Y0062389D01*
X0107120Y0062447D01*
X0107010Y0062507D01*
X0106903Y0062572D01*
X0106798Y0062639D01*
X0106695Y0062710D01*
X0106595Y0062784D01*
X0106497Y0062861D01*
X0106401Y0062942D01*
X0106308Y0063025D01*
X0106217Y0063111D01*
X0106130Y0063200D01*
X0106045Y0063292D01*
X0105963Y0063386D01*
X0105884Y0063483D01*
X0105809Y0063583D01*
X0105736Y0063684D01*
X0105667Y0063788D01*
X0105601Y0063895D01*
X0105539Y0064003D01*
X0105480Y0064113D01*
X0105424Y0064225D01*
X0105372Y0064339D01*
X0105324Y0064454D01*
X0105279Y0064570D01*
X0105239Y0064689D01*
X0105201Y0064808D01*
X0105168Y0064928D01*
X0105139Y0065050D01*
X0105113Y0065172D01*
X0105091Y0065295D01*
X0105074Y0065419D01*
X0105060Y0065543D01*
X0105050Y0065667D01*
X0105044Y0065792D01*
X0105042Y0065917D01*
X0089542Y0040317D02*
X0089544Y0040442D01*
X0089550Y0040567D01*
X0089560Y0040691D01*
X0089574Y0040815D01*
X0089591Y0040939D01*
X0089613Y0041062D01*
X0089639Y0041184D01*
X0089668Y0041306D01*
X0089701Y0041426D01*
X0089739Y0041545D01*
X0089779Y0041664D01*
X0089824Y0041780D01*
X0089872Y0041895D01*
X0089924Y0042009D01*
X0089980Y0042121D01*
X0090039Y0042231D01*
X0090101Y0042339D01*
X0090167Y0042446D01*
X0090236Y0042550D01*
X0090309Y0042651D01*
X0090384Y0042751D01*
X0090463Y0042848D01*
X0090545Y0042942D01*
X0090630Y0043034D01*
X0090717Y0043123D01*
X0090808Y0043209D01*
X0090901Y0043292D01*
X0090997Y0043373D01*
X0091095Y0043450D01*
X0091195Y0043524D01*
X0091298Y0043595D01*
X0091403Y0043662D01*
X0091511Y0043727D01*
X0091620Y0043787D01*
X0091731Y0043845D01*
X0091844Y0043898D01*
X0091958Y0043948D01*
X0092074Y0043995D01*
X0092191Y0044037D01*
X0092310Y0044076D01*
X0092430Y0044112D01*
X0092551Y0044143D01*
X0092673Y0044171D01*
X0092795Y0044194D01*
X0092919Y0044214D01*
X0093043Y0044230D01*
X0093167Y0044242D01*
X0093292Y0044250D01*
X0093417Y0044254D01*
X0093541Y0044254D01*
X0093666Y0044250D01*
X0093791Y0044242D01*
X0093915Y0044230D01*
X0094039Y0044214D01*
X0094163Y0044194D01*
X0094285Y0044171D01*
X0094407Y0044143D01*
X0094528Y0044112D01*
X0094648Y0044076D01*
X0094767Y0044037D01*
X0094884Y0043995D01*
X0095000Y0043948D01*
X0095114Y0043898D01*
X0095227Y0043845D01*
X0095338Y0043787D01*
X0095448Y0043727D01*
X0095555Y0043662D01*
X0095660Y0043595D01*
X0095763Y0043524D01*
X0095863Y0043450D01*
X0095961Y0043373D01*
X0096057Y0043292D01*
X0096150Y0043209D01*
X0096241Y0043123D01*
X0096328Y0043034D01*
X0096413Y0042942D01*
X0096495Y0042848D01*
X0096574Y0042751D01*
X0096649Y0042651D01*
X0096722Y0042550D01*
X0096791Y0042446D01*
X0096857Y0042339D01*
X0096919Y0042231D01*
X0096978Y0042121D01*
X0097034Y0042009D01*
X0097086Y0041895D01*
X0097134Y0041780D01*
X0097179Y0041664D01*
X0097219Y0041545D01*
X0097257Y0041426D01*
X0097290Y0041306D01*
X0097319Y0041184D01*
X0097345Y0041062D01*
X0097367Y0040939D01*
X0097384Y0040815D01*
X0097398Y0040691D01*
X0097408Y0040567D01*
X0097414Y0040442D01*
X0097416Y0040317D01*
X0097414Y0040192D01*
X0097408Y0040067D01*
X0097398Y0039943D01*
X0097384Y0039819D01*
X0097367Y0039695D01*
X0097345Y0039572D01*
X0097319Y0039450D01*
X0097290Y0039328D01*
X0097257Y0039208D01*
X0097219Y0039089D01*
X0097179Y0038970D01*
X0097134Y0038854D01*
X0097086Y0038739D01*
X0097034Y0038625D01*
X0096978Y0038513D01*
X0096919Y0038403D01*
X0096857Y0038295D01*
X0096791Y0038188D01*
X0096722Y0038084D01*
X0096649Y0037983D01*
X0096574Y0037883D01*
X0096495Y0037786D01*
X0096413Y0037692D01*
X0096328Y0037600D01*
X0096241Y0037511D01*
X0096150Y0037425D01*
X0096057Y0037342D01*
X0095961Y0037261D01*
X0095863Y0037184D01*
X0095763Y0037110D01*
X0095660Y0037039D01*
X0095555Y0036972D01*
X0095447Y0036907D01*
X0095338Y0036847D01*
X0095227Y0036789D01*
X0095114Y0036736D01*
X0095000Y0036686D01*
X0094884Y0036639D01*
X0094767Y0036597D01*
X0094648Y0036558D01*
X0094528Y0036522D01*
X0094407Y0036491D01*
X0094285Y0036463D01*
X0094163Y0036440D01*
X0094039Y0036420D01*
X0093915Y0036404D01*
X0093791Y0036392D01*
X0093666Y0036384D01*
X0093541Y0036380D01*
X0093417Y0036380D01*
X0093292Y0036384D01*
X0093167Y0036392D01*
X0093043Y0036404D01*
X0092919Y0036420D01*
X0092795Y0036440D01*
X0092673Y0036463D01*
X0092551Y0036491D01*
X0092430Y0036522D01*
X0092310Y0036558D01*
X0092191Y0036597D01*
X0092074Y0036639D01*
X0091958Y0036686D01*
X0091844Y0036736D01*
X0091731Y0036789D01*
X0091620Y0036847D01*
X0091510Y0036907D01*
X0091403Y0036972D01*
X0091298Y0037039D01*
X0091195Y0037110D01*
X0091095Y0037184D01*
X0090997Y0037261D01*
X0090901Y0037342D01*
X0090808Y0037425D01*
X0090717Y0037511D01*
X0090630Y0037600D01*
X0090545Y0037692D01*
X0090463Y0037786D01*
X0090384Y0037883D01*
X0090309Y0037983D01*
X0090236Y0038084D01*
X0090167Y0038188D01*
X0090101Y0038295D01*
X0090039Y0038403D01*
X0089980Y0038513D01*
X0089924Y0038625D01*
X0089872Y0038739D01*
X0089824Y0038854D01*
X0089779Y0038970D01*
X0089739Y0039089D01*
X0089701Y0039208D01*
X0089668Y0039328D01*
X0089639Y0039450D01*
X0089613Y0039572D01*
X0089591Y0039695D01*
X0089574Y0039819D01*
X0089560Y0039943D01*
X0089550Y0040067D01*
X0089544Y0040192D01*
X0089542Y0040317D01*
M02*
