G75*
%MOIN*%
%OFA0B0*%
%FSLAX25Y25*%
%IPPOS*%
%LPD*%
%AMOC8*
5,1,8,0,0,1.08239X$1,22.5*
%
%ADD10R,0.08083X0.05131*%
%ADD11R,0.08280X0.08674*%
%ADD12C,0.03753*%
%ADD13C,0.04934*%
%ADD14C,0.11627*%
%ADD15R,0.04737X0.03950*%
%ADD16R,0.03556X0.06706*%
%ADD17C,0.04343*%
%ADD18R,0.20800X0.10800*%
%ADD19R,0.02965X0.08674*%
%ADD20R,0.03950X0.05524*%
%ADD21R,0.05800X0.05800*%
%ADD22R,0.12611X0.10643*%
%ADD23R,0.08280X0.07887*%
%ADD24R,0.07099X0.06706*%
%ADD25C,0.05131*%
%ADD26C,0.04762*%
D10*
G36*
X0015568Y0053405D02*
X0009854Y0059119D01*
X0013482Y0062747D01*
X0019196Y0057033D01*
X0015568Y0053405D01*
G37*
G36*
X0019465Y0057302D02*
X0013751Y0063016D01*
X0017379Y0066644D01*
X0023093Y0060930D01*
X0019465Y0057302D01*
G37*
G36*
X0023363Y0061199D02*
X0017649Y0066913D01*
X0021277Y0070541D01*
X0026991Y0064827D01*
X0023363Y0061199D01*
G37*
G36*
X0034081Y0034892D02*
X0028367Y0040606D01*
X0031995Y0044234D01*
X0037709Y0038520D01*
X0034081Y0034892D01*
G37*
G36*
X0037978Y0038789D02*
X0032264Y0044503D01*
X0035892Y0048131D01*
X0041606Y0042417D01*
X0037978Y0038789D01*
G37*
G36*
X0041875Y0042687D02*
X0036161Y0048401D01*
X0039789Y0052029D01*
X0045503Y0046315D01*
X0041875Y0042687D01*
G37*
D11*
G36*
X0016042Y0035225D02*
X0010187Y0041080D01*
X0016320Y0047213D01*
X0022175Y0041358D01*
X0016042Y0035225D01*
G37*
G36*
X0039037Y0058220D02*
X0033182Y0064075D01*
X0039315Y0070208D01*
X0045170Y0064353D01*
X0039037Y0058220D01*
G37*
D12*
X0032968Y0058006D03*
D13*
X0022389Y0047427D03*
D14*
X0020048Y0021491D03*
X0110599Y0021491D03*
X0110599Y0249837D03*
X0020048Y0249837D03*
D15*
X0048540Y0020047D03*
X0048540Y0011386D03*
X0081217Y0011386D03*
X0081217Y0020047D03*
D16*
X0073737Y0024575D03*
X0067831Y0024575D03*
X0056020Y0024575D03*
D17*
X0058973Y0015717D03*
X0070784Y0015717D03*
D18*
X0112479Y0102817D03*
X0112279Y0119517D03*
D19*
X0088410Y0130083D03*
X0083292Y0130083D03*
X0078174Y0130083D03*
X0073056Y0130083D03*
X0067938Y0130083D03*
X0062819Y0130083D03*
X0057701Y0130083D03*
X0052583Y0130083D03*
X0047465Y0130083D03*
X0042347Y0130083D03*
X0037229Y0130083D03*
X0032111Y0130083D03*
X0026993Y0130083D03*
D20*
X0027435Y0087217D03*
X0034522Y0087217D03*
D21*
X0082679Y0045317D03*
X0082679Y0035317D03*
X0098179Y0060917D03*
X0098179Y0070917D03*
X0104279Y0045317D03*
X0104279Y0035317D03*
X0119779Y0060917D03*
X0119779Y0070917D03*
D22*
X0097679Y0161002D03*
X0097679Y0234231D03*
X0033279Y0234231D03*
X0033279Y0161002D03*
D23*
X0055636Y0235156D03*
X0065479Y0235156D03*
X0075321Y0235156D03*
D24*
X0086738Y0253857D03*
X0044219Y0253857D03*
D25*
X0055636Y0250117D03*
X0075321Y0250117D03*
D26*
X0021979Y0053117D03*
M02*
