%
M48
M72
T01C0.01378
T02C0.02362
T03C0.02400
T04C0.02953
T05C0.03543
T06C0.04134
T07C0.04331
T08C0.10827
%
T01
X67979Y33117
X112479Y85617
T02
X91479Y143117
X83479Y155617
X86979Y227617
X46479Y120617
X46479Y115617
X29979Y106617
X21479Y80617
X32979Y78617
X21979Y53117
X32479Y48117
X29479Y150617
T03
X31479Y138517
X39579Y150217
X48579Y146617
X37779Y176317
X31479Y169117
X30579Y175817
X30579Y195617
X30579Y205617
X30579Y216817
X17079Y236617
X92679Y109717
X96779Y112817
X100779Y127717
X68379Y57517
X66579Y66517
X62979Y62917
X58479Y59317
X50379Y62917
T04
X32968Y58006
T05
X58973Y15717
X70784Y15717
T06
X22389Y47427
T07
X55636Y250117
X75321Y250117
T08
X20048Y21491
X110599Y21491
X110599Y249837
X20048Y249837
M30
