G75*
%MOIN*%
%OFA0B0*%
%FSLAX25Y25*%
%IPPOS*%
%LPD*%
%AMOC8*
5,1,8,0,0,1.08239X$1,22.5*
%
%ADD10C,0.02000*%
%ADD11C,0.00800*%
%ADD12C,0.00500*%
%ADD13C,0.00400*%
D10*
X0056479Y0058020D02*
X0079899Y0058020D01*
X0079899Y0065827D02*
X0056479Y0065827D01*
X0056479Y0077505D02*
X0079899Y0077505D01*
X0079899Y0089215D01*
X0075995Y0093118D01*
X0068189Y0093118D01*
X0064285Y0089215D01*
X0064285Y0077505D01*
X0064285Y0069730D02*
X0064285Y0054117D01*
X0072092Y0054117D02*
X0072092Y0065827D01*
X0072092Y0069730D01*
X0075995Y0100892D02*
X0060382Y0100892D01*
X0075995Y0116506D01*
X0060382Y0116506D01*
X0056479Y0112602D01*
X0056479Y0104796D01*
X0060382Y0100892D01*
X0060382Y0124280D02*
X0056479Y0128184D01*
X0056479Y0135990D01*
X0060382Y0139894D01*
X0064285Y0147668D02*
X0079899Y0163282D01*
X0079899Y0171056D02*
X0056479Y0171056D01*
X0056479Y0186670D01*
X0056479Y0202251D02*
X0079899Y0202251D01*
X0079899Y0194444D02*
X0079899Y0210058D01*
X0079899Y0186670D02*
X0079899Y0171056D01*
X0079899Y0147668D02*
X0056479Y0147668D01*
X0068189Y0151572D02*
X0056479Y0163282D01*
X0068189Y0171056D02*
X0068189Y0178863D01*
X0075995Y0139894D02*
X0079899Y0135990D01*
X0079899Y0128184D01*
X0075995Y0124280D01*
X0060382Y0124280D01*
X0075995Y0116506D02*
X0079899Y0112602D01*
X0079899Y0104796D01*
X0075995Y0100892D01*
D11*
X0067121Y0096551D02*
X0065586Y0096551D01*
X0062517Y0096551D02*
X0062517Y0095017D01*
X0062517Y0096551D02*
X0056379Y0096551D01*
X0056379Y0095017D02*
X0056379Y0098086D01*
D12*
X0010048Y0035664D02*
X0010048Y0235664D01*
X0020048Y0235664D01*
X0020048Y0225664D01*
X0030048Y0225664D01*
X0030048Y0035664D01*
X0010048Y0035664D01*
X0030048Y0225664D02*
X0030048Y0229414D01*
X0031298Y0229414D01*
X0031298Y0231914D01*
X0030048Y0231914D01*
X0030048Y0229414D01*
X0030048Y0231914D02*
X0030048Y0235664D01*
X0020048Y0235664D01*
D13*
X0032498Y0230833D02*
X0032498Y0228431D01*
X0032498Y0229632D02*
X0036101Y0229632D01*
X0034900Y0228431D01*
M02*
